<svg height="512pt" viewBox="-15 0 512 512.00184" width="512pt" xmlns="http://www.w3.org/2000/svg">
    <style>
		.green {
			fill: #68a437;
		}
	</style>
    <path class="green" d="m406.359375 286.429688c4.175781 0 7.558594-3.382813 7.558594-7.554688v-.730469c0-4.171875-3.382813-7.558593-7.558594-7.558593-4.171875 0-7.558594 3.386718-7.558594 7.558593v.730469c0 4.171875 3.386719 7.554688 7.558594 7.554688zm0 0"/>
    <path class="green"  d="m456.347656 307.015625c-6.523437-39.003906-32.558594-69.066406-64.605468-73.191406v-187.691407c8.472656-5.878906 11.046874-17.722656 8.320312-27.550781-3.269531-11.785156-14.617188-21.792969-32.585938-17.613281-76.199218 16.726562-151.980468 58.761719-213.390624 118.355469-.871094.84375-1.742188 1.6875-2.585938 2.527343-2.953125 2.949219-2.957031 7.734376-.007812 10.6875 2.949218 2.953126 7.734374 2.957032 10.6875.007813.785156-.785156 1.597656-1.570313 2.421874-2.363281 59.441407-57.6875 132.65625-98.335938 206.160157-114.460938.03125-.007812.066406-.015625.101562-.023437 10.386719-2.429688 13.628907 3.292969 14.632813 6.921875 1.394531 5.023437-.179688 10.347656-3.375 11.613281-70.210938 15.511719-140.339844 53.28125-197.527344 106.382813-4.875 4.527343-9.613281 9.148437-14.230469 13.839843-.1875.171875-.363281.351563-.53125.539063-50.691406 51.683594-85.46875 112.839844-98.863281 174.289062-8.480469 7.445313-14.5625 17.644532-16.765625 29.382813-.621094-.097657-1.238281-.207031-1.871094-.277344-3.535156-.378906-7.011719-.28125-10.371093.238281 9.738281-69.820312 43.714843-140.757812 96.507812-200.980468 2.753906-3.136719 2.4375-7.910157-.699219-10.664063-3.140625-2.75-7.914062-2.4375-10.664062.703125-28.199219 32.160156-51.214844 67.058594-68.414063 103.726562-17.449218 37.195313-28.441406 75.324219-32.742187 113.398438-9.660157 6.378906-16.507813 16.855469-17.832031 29.230469l-7.886719 73.535156c-1.136719 10.625 1.960937 21.082031 8.71875 29.453125 6.757812 8.367188 16.332031 13.601562 26.957031 14.738281 1.445312.15625 2.886719.230469 4.316406.230469 9.117188 0 17.914063-3.097656 25.148438-8.925781 8.375-6.75 13.613281-16.324219 14.753906-26.960938l6.339844-59.386719c4.222656 1.628907 8.683594 2.726563 13.304687 3.21875 1.851563.199219 3.691407.292969 5.511719.292969 10.402344 0 20.230469-3.128906 28.488281-8.554687l12.261719 13.785156c-1.882812 3.441406-3.136719 7.300781-3.582031 11.4375-.863281 8.167969 1.503906 16.183594 6.667969 22.574219 5.164062 6.398437 12.511718 10.394531 20.664062 11.257812 1.125.121094 2.242188.179688 3.359375.179688 6.992187 0 13.730469-2.367188 19.253906-6.824219 6.394531-5.160156 10.390625-12.496094 11.253907-20.648438 1.816406-16.855468-10.433594-32.050781-27.304688-33.871093-.007812 0-.011719-.003907-.019531-.003907-7.277344-.765624-14.238281 1.082032-19.953125 4.78125l-11.292969-12.699218c6.4375-7.640625 10.753906-17.199219 11.894531-27.851563 1.476563-13.796875-2.511718-27.34375-11.230468-38.140625-4.164063-5.15625-9.171876-9.378906-14.769532-12.554687 37.253906-45.398438 48.878906-108.234375 51.695313-156.257813 64.875-8.324218 148.597656-53.816406 193.960937-103.972656v170.964844c-31.78125 4.054687-57.996094 33.414062-64.574218 73.171875-16.488282 12.839843-25.585938 36.773437-25.691407 67.933593-.011719 6.742188.703125 14.1875 6.09375 18.3125 2.566407 1.960938 5.421875 2.671876 8.480469 2.671876 3.902344 0 8.132812-1.15625 12.503906-2.351563l11.128906-3.0625c3.644532 8.371094 8.019532 16.890625 13.152344 25.644531l.671875 1.144532c7.328125 12.515624 6.949219 12.972656 4.835938 15.511718l-23.695313 28.558594c-3.195312 3.859375-3.847656 8.824219-1.75 13.28125 2.320313 4.933594 8 8.800781 12.929688 8.800781h12.785156l40.667969.082031h.03125l40.65625-.082031h12.828125c4.917968 0 10.589844-3.867187 12.914062-8.804687 2.101563-4.460938 1.453125-9.421875-1.738281-13.28125l-23.695313-28.558594c-2.121093-2.550781-2.503906-3.011719 4.914063-15.628906l.597656-1.019532c5.128907-8.761718 9.496094-17.285156 13.140625-25.652343l11.15625 3.070312c4.359375 1.191407 8.589844 2.347657 12.488282 2.347657 3.058593 0 5.917968-.710938 8.480468-2.675782 5.386719-4.128906 6.089844-11.578125 6.066406-18.3125-.070312-31.125-9.15625-55.066406-25.660156-67.925781zm-298.867187 131.496094c.863281-8.019531 7.691406-13.996094 15.601562-13.996094.546875 0 1.097657.027344 1.652344.085937 8.582031.929688 14.8125 8.65625 13.886719 17.242188-.4375 4.140625-2.46875 7.863281-5.71875 10.484375-3.253906 2.628906-7.335938 3.828125-11.515625 3.378906-4.148438-.4375-7.882813-2.472656-10.511719-5.722656-2.628906-3.253906-3.835938-7.335937-3.394531-11.472656zm-92.382813 35.996093c-.710937 6.613282-3.980468 12.578126-9.210937 16.796876-5.230469 4.214843-11.757813 6.144531-18.371094 5.4375-6.613281-.710938-12.582031-3.980469-16.808594-9.207032-4.21875-5.226562-6.15625-11.742187-5.449219-18.34375l7.890626-73.542968c.910156-8.53125 6.035156-15.605469 13.070312-19.394532.171875-.078125.339844-.167968.507812-.257812 4.171876-2.125 8.980469-3.113282 13.96875-2.582032.988282.109376 1.953126.289063 2.902344.507813 1.050782 9.808594 4.875 19.128906 11.21875 26.984375 2.21875 2.75 4.683594 5.238281 7.34375 7.441406zm68.886719-129.351562c6.179687 7.652344 9.007813 17.253906 7.960937 27.035156-.722656 6.765625-3.257812 12.90625-7.054687 18.003906l-23.964844-26.933593c-2.773437-3.117188-7.550781-3.398438-10.667969-.621094-3.117187 2.773437-3.398437 7.550781-.625 10.667969l23.949219 26.917968c-5.441406 3.121094-11.707031 4.894532-18.300781 4.894532-1.292969 0-2.597656-.066406-3.910156-.207032-6.089844-.648437-11.792969-2.75-16.722656-6.078124-.132813-.101563-.269532-.195313-.40625-.289063-2.84375-1.976563-5.425782-4.367187-7.660157-7.136719-6.183593-7.65625-9.011719-17.269531-7.964843-27.0625 2.023437-18.863281 18.042968-32.90625 36.625-32.90625 1.304687 0 2.625.070313 3.953124.210938 9.800782 1.050781 18.601563 5.84375 24.789063 13.503906zm-18.027344-27.71875c-1.691406-.355469-3.414062-.625-5.15625-.8125-7.574219-.808594-14.941406.070312-21.742187 2.3125 13.386718-49.226562 40.730468-96.769531 77.382812-138.195312-4.226562 44.714843-16.910156 98.535156-50.484375 136.695312zm81.875-168.601562c47.144531-43.171876 104.773438-76.816407 165.964844-94.355469-39.1875 42.21875-108.566406 81.648437-165.964844 94.355469zm111.613281 230.164062c-2.070312.566406-5.566406 1.523438-7.5625 1.769531-.195312-.976562-.410156-2.738281-.402343-5.785156.039062-11.382813 1.515625-29.1875 9.105469-43.078125.5625 14.847656 3.332031 29.488281 8.464843 44.453125zm108.195313 29.519531-.59375 1.003907c-7.148437 12.164062-12.796875 21.773437-3.507813 32.945312l21.464844 25.875-50.816406.082031-40.667969-.082031h-10.121093l21.460937-25.867188c9.265625-11.144531 3.664063-20.707031-3.421875-32.808593l-.671875-1.144531c-17.175781-29.292969-25.175781-55.464844-25.175781-82.363282 0-1.675781.054687-3.332031.132812-4.984375 12.976563 3.621094 26.65625 6.046875 40.820313 7.1875.207031.015625.414062.027344.617187.027344 3.898438 0 7.207032-3 7.523438-6.953125.335937-4.160156-2.765625-7.804688-6.925782-8.140625-14-1.125-27.472656-3.578125-40.15625-7.285156 6.804688-33.707031 29.871094-57.554688 56.585938-57.554688 27.042969 0 49.859375 24.402344 56.597656 57.460938-12.285156 3.441406-24.765625 5.808593-37.242187 7.03125-.398438.042969-2.40625.230469-2.789063.25-4.167968.230469-7.359375 3.792969-7.132812 7.960937.222656 4.027344 3.558594 7.144532 7.539062 7.144532.140625 0 .28125-.003907.421875-.011719.570313-.03125 2.945313-.25 3.496094-.304688 12.5625-1.234375 25.167969-3.570312 37.59375-6.925781.085937 1.6875.140625 3.382812.140625 5.097656 0 26.84375-8 53.019532-25.171875 82.359375zm48.863281-27.753906c-2-.246094-5.480468-1.199219-7.535156-1.761719l-9.632812-2.648437c5.140624-14.976563 7.914062-29.613281 8.480468-44.445313 7.589844 13.898438 9.050782 31.699219 9.078125 43.078125.011719 3.039063-.195312 4.800781-.390625 5.777344zm0 0"/>
</svg>