<?xml version="1.0" encoding="iso-8859-1"?>
<!-- Generator: Adobe Illustrator 19.0.0, SVG Export Plug-In . SVG Version: 6.00 Build 0)  -->
<svg version="1.1" id="Layer_1" xmlns="http://www.w3.org/2000/svg" xmlns:xlink="http://www.w3.org/1999/xlink" x="0px" y="0px"
	 viewBox="0 0 512 512" style="enable-background:new 0 0 512 512;" xml:space="preserve">
	 <style>
		.green {
			fill: #68a437;
		}
	</style>
<g>
	<g>
		<path class="green"  d="M502.508,380.038c-1.209-0.579-2.429-1.126-3.654-1.656c3.085-6.993,5.266-14.222,6.448-21.494
			c4.302-26.457-3.915-54.932-21.979-76.171c-15.971-18.777-37.974-29.546-60.368-29.546c-9.22,0-16.695,7.475-16.695,16.695
			c0,18.412-14.979,33.391-33.391,33.391H139.132c-18.412,0-33.391-14.979-33.391-33.391c0-9.22-7.475-16.695-16.695-16.695
			c-22.394,0-44.398,10.77-60.368,29.546c-18.064,21.239-26.281,49.714-21.979,76.172c1.182,7.27,3.362,14.499,6.448,21.493
			c-1.225,0.531-2.445,1.077-3.654,1.656c-8.318,3.98-11.833,13.948-7.854,22.266c3.98,8.32,13.95,11.838,22.267,7.854
			c23.279-11.138,51.087-9.159,72.575,5.164c36.05,24.032,82.641,24.036,118.694,0c24.8-16.533,56.85-16.533,81.651,0
			c36.053,24.035,82.642,24.035,118.694,0c21.486-14.325,49.296-16.305,72.574-5.164c8.321,3.982,18.287,0.465,22.267-7.854
			C514.34,393.986,510.824,384.018,502.508,380.038z M472.342,351.528c-1.015,6.242-3.284,12.514-6.614,18.507
			c-23.9-2.067-48.286,3.871-68.732,17.502c-24.799,16.533-56.849,16.533-81.649,0c-36.052-24.035-82.642-24.035-118.695,0
			c-24.799,16.533-56.849,16.533-81.649,0c-20.446-13.631-44.832-19.569-68.732-17.502c-3.328-5.994-5.599-12.266-6.614-18.506
			c-2.751-16.917,2.653-35.302,14.456-49.179c6.155-7.237,13.365-12.422,21.055-15.265c8.273,27.485,33.817,47.562,63.963,47.562
			h233.736c30.146,0,55.69-20.077,63.963-47.562c7.69,2.843,14.9,8.028,21.055,15.265
			C469.689,316.228,475.094,334.612,472.342,351.528z"/>
	</g>
</g>
<g>
	<g>
		<path class="green"  d="M502.508,446.819c-33.848-16.2-74.277-13.323-105.51,7.501c-24.799,16.533-56.849,16.533-81.649,0
			c-36.052-24.035-82.642-24.035-118.695,0c-24.799,16.533-56.849,16.533-81.649,0c-31.235-20.823-71.662-23.7-105.51-7.501
			c-8.318,3.98-11.833,13.948-7.854,22.266c3.98,8.319,13.95,11.837,22.267,7.854c23.279-11.138,51.087-9.16,72.575,5.164
			c36.05,24.032,82.641,24.036,118.694,0c24.8-16.533,56.85-16.533,81.651,0c36.053,24.035,82.642,24.035,118.694,0
			c21.486-14.325,49.296-16.305,72.574-5.164c8.321,3.982,18.287,0.465,22.267-7.854
			C514.34,460.768,510.824,450.799,502.508,446.819z"/>
	</g>
</g>
<g>
	<g>
		<path class="green"  d="M495.301,45.261H130.695c-6.892-19.432-25.449-33.391-47.215-33.391H16.699c-9.22,0-16.695,7.475-16.695,16.695v66.782
			c0,9.22,7.475,16.695,16.695,16.695h66.782c21.765,0,40.323-13.958,47.215-33.391h364.605c9.22,0,16.695-7.475,16.695-16.695
			C511.996,52.736,504.521,45.261,495.301,45.261z M83.481,78.652H33.395V45.261h50.086c9.206,0,16.695,7.49,16.695,16.695
			C100.176,71.163,92.687,78.652,83.481,78.652z"/>
	</g>
</g>
<g>
	<g>
		<path class="green"  d="M495.301,112.043h-66.782c-21.765,0-40.323,13.958-47.215,33.391H16.699c-9.22,0-16.695,7.475-16.695,16.695
			c0,9.22,7.475,16.695,16.695,16.695h364.605c6.892,19.432,25.449,33.391,47.215,33.391h66.782c9.22,0,16.695-7.475,16.695-16.695
			v-66.782C511.996,119.517,504.521,112.043,495.301,112.043z M478.605,178.825h-50.086c-9.206,0-16.695-7.49-16.695-16.695
			c0-9.206,7.49-16.695,16.695-16.695h50.086V178.825z"/>
	</g>
</g>
<g>
</g>
<g>
</g>
<g>
</g>
<g>
</g>
<g>
</g>
<g>
</g>
<g>
</g>
<g>
</g>
<g>
</g>
<g>
</g>
<g>
</g>
<g>
</g>
<g>
</g>
<g>
</g>
<g>
</g>
</svg>
