<?xml version="1.0" encoding="utf-8"?>
<!-- Generator: Adobe Illustrator 24.1.0, SVG Export Plug-In . SVG Version: 6.00 Build 0)  -->
<svg version="1.1" id="Layer_1" xmlns="http://www.w3.org/2000/svg" xmlns:xlink="http://www.w3.org/1999/xlink" x="0px" y="0px"
	 viewBox="0 0 512 512" style="enable-background:new 0 0 512 512;" xml:space="preserve">
	 <style>
		.green {
			fill: #68a437;
		}
	</style>
<path class="green" d="M502,262.81h-25.22c-3.08,0-5.99,1.42-7.89,3.85l-15.21,19.5c-3.4,4.36-2.62,10.64,1.73,14.04
	c1.83,1.43,3.99,2.11,6.14,2.11c2.98,0,5.92-1.32,7.89-3.85l12.21-15.65H502c5.52,0,10-4.48,10-10S507.52,262.81,502,262.81z"/>
<path class="green" d="M420.53,344.92c-4.36-3.39-10.64-2.62-14.04,1.73l-14.06,18.03h-43.78l-34.97-119.81c10.2-3.88,17.46-13.75,17.46-25.29
	c0-14.91-12.13-27.05-27.05-27.05h-5.68l-7.25-24.83c-1.55-5.3-7.11-8.34-12.4-6.8c-5.3,1.55-8.34,7.1-6.8,12.4l5.61,19.23h-5.33
	l-37.15-35.46c0.79-0.5,1.57-1.01,2.34-1.55c10.57-7.48,17.6-18.64,19.78-31.41c2.18-12.77-0.74-25.62-8.22-36.19
	c-7.48-10.57-18.64-17.59-31.41-19.78c-26.36-4.51-51.46,13.27-55.96,39.63c-2.72,15.9,2.68,31.34,13.18,42.08
	c-2.79,1.31-5.4,2.83-7.84,4.55c-4.69-9.8-13.75-17.27-25.05-19.3c-8.98-1.61-18.05,0.41-25.54,5.68
	c-7.65,5.39-12.72,13.51-14.28,22.86c-1,6-0.43,11.91,1.42,17.3c-0.49,0.23-0.96,0.5-1.41,0.81c-2.18,1.52-3.66,3.86-4.12,6.48
	l-14.05,80.67c-2.53,14.53,6.83,28.4,20.86,30.91l16.84,3.02c1.52,0.27,3.03,0.41,4.52,0.41c1.12,0,2.22-0.1,3.31-0.24l-3.12,47.86
	l-24.27,50.06c-2.3,4.75-3.47,9.84-3.47,15.1c0,5.13,1.17,10.11,3.28,14.62H90.27c-1.91,0-3.77,0.55-5.38,1.57L4.62,483.41
	c-4.66,2.97-6.02,9.15-3.05,13.81c1.91,2.99,5.14,4.62,8.44,4.62c1.84,0,3.7-0.51,5.37-1.57l77.81-49.62h38.08
	c0.65,0.04,1.3,0.06,1.95,0.06c0.54,0,1.07-0.03,1.61-0.06h106.62c2.56,0,5.03-0.98,6.89-2.75l66.54-63.21h26.22h0.06h0.04h56.13
	c3.08,0,5.99-1.42,7.88-3.85l17.07-21.88C425.66,354.6,424.89,348.32,420.53,344.92z M170.35,308.14c-3.87-0.66-8.16-0.95-11.68-2.8
	c-6.22-3.28-9.38-10.22-8.23-17.06c0.32-1.89,0.65-3.79,0.97-5.69c29.01-1.35,49.25-9.5,62.8-18.21l-2.34,13.72
	c-0.75,4.39,1.5,8.76,5.52,10.7l35.6,17.15l41.36,52.21c5.02,6.34,3.95,15.59-2.39,20.61c-6.34,5.02-15.59,3.95-20.61-2.39
	l-35.75-45.12c-0.94-1.19-2.14-2.14-3.5-2.8l-30.13-14.52c-0.84-0.41-1.74-0.69-2.66-0.85L170.35,308.14z M310.03,345.74
	l-42.8-54.03c-0.7-0.88-1.54-1.63-2.48-2.23c-0.33-0.21-0.68-0.4-1.04-0.57l-30.86-14.87l4.68-27.41h55.82l34.45,118.05h-10.4
	C316.93,358,314.5,351.38,310.03,345.74z M268.24,212.54h22.61c0.02,0,0.04,0,0.06,0c0.01,0,0.02,0,0.04,0h13.15
	c3.89,0,7.05,3.16,7.05,7.05s-3.16,7.05-7.05,7.05h-3.04c-0.01,0-0.02,0-0.03,0h-68.2l-20.22-17.43c-4.19-3.6-10.5-3.13-14.11,1.05
	s-3.14,10.5,1.05,14.1l15.82,13.63c-7.91,8.22-25.97,21.76-60.48,24.35l3.68-21.5l6.95-40.62c0-0.03,0-0.05,0.01-0.08l2.06-12.05
	c2-11.67,11.95-23.92,33.86-23.92c0.5,0,1.01,0.01,1.53,0.02c0.08,0,0.17,0,0.25,0c6.86,0,13.02,2.37,17.35,6.66
	c0.13,0.13,0.26,0.25,0.39,0.38l40.38,38.54C263.2,211.55,265.67,212.54,268.24,212.54z M181.33,111.15
	c2.37-13.87,14.45-23.69,28.07-23.69c1.59,0,3.2,0.13,4.82,0.41c7.5,1.28,14.05,5.41,18.45,11.62s6.12,13.77,4.83,21.27
	c-2.37,13.87-14.45,23.7-28.07,23.69c-1.59,0-3.2-0.13-4.82-0.41C189.12,141.39,178.68,126.64,181.33,111.15z M121.82,166.95
	c0.67-4.03,2.83-7.51,6.07-9.8c2.39-1.68,5.17-2.56,8.01-2.56c0.82,0,1.64,0.07,2.47,0.22c7.91,1.42,13.23,9.27,11.86,17.49
	c-0.67,4.03-2.83,7.51-6.08,9.8c-3.08,2.17-6.8,3-10.48,2.34C125.77,183.02,120.44,175.17,121.82,166.95z M125.16,283.17
	l-16.84-3.02c-3.23-0.58-5.33-4.08-4.68-7.8l12.32-70.77l28.15,5.05l-4.75,27.77l-7.56,44.22
	C130.81,281.69,127.96,283.67,125.16,283.17z M126.87,429.25c-5.1-2.47-8.27-7.54-8.27-13.22c0-2.22,0.5-4.37,1.47-6.38l25.12-51.81
	c0.57-1.16,0.9-2.42,0.98-3.71l2.07-31.69c7.54,4.32,16.53,5.03,24.96,6.48c1.59,0.27,3.17,0.54,4.76,0.81l-2.25,32.43l-29.23,60.29
	c-2.36,4.86-7.06,7.82-12.09,8.21h-2.27C130.34,430.52,128.57,430.07,126.87,429.25z M237.45,430.66h-72.73l29.82-61.52
	c0.21-0.43,0.38-0.86,0.52-1.3c0.24-0.75,0.4-1.55,0.46-2.38l2.18-31.39l23.66,11.4l34.32,43.32c3.95,4.98,9,8.58,14.53,10.73
	L237.45,430.66z"/>
<path class="green" d="M446.25,317.86c-1.61-3.93-5.71-6.45-9.95-6.14c-4.16,0.3-7.75,3.22-8.89,7.22c-1.15,4.01,0.39,8.44,3.78,10.88
	c3.34,2.39,7.96,2.46,11.37,0.19C446.48,327.39,448.06,322.21,446.25,317.86z"/>
</svg>
