<?xml version="1.0" encoding="utf-8"?>
<!-- Generator: Adobe Illustrator 24.1.0, SVG Export Plug-In . SVG Version: 6.00 Build 0)  -->
<svg version="1.1" id="Layer_1" xmlns="http://www.w3.org/2000/svg" xmlns:xlink="http://www.w3.org/1999/xlink" x="0px" y="0px"
	 viewBox="0 0 30 30" style="enable-background:new 0 0 30 30;" xml:space="preserve">
	 <style>
        .weather-icon {
            fill: #ffffff;
        }
    </style>
<g>
	<g>
		<path class="weather-icon" d="M15,15.6c-0.3,0-0.6-0.3-0.6-0.6V0.7c0-0.3,0.3-0.6,0.6-0.6s0.6,0.3,0.6,0.6V15C15.6,15.3,15.3,15.6,15,15.6z"/>
	</g>
	<g>
		<path class="weather-icon" d="M15,8.7c-0.1,0-0.3-0.1-0.4-0.2l-4-4c-0.2-0.2-0.2-0.6,0-0.8c0.2-0.2,0.6-0.2,0.8,0L15,7.3l3.6-3.6c0.2-0.2,0.6-0.2,0.8,0
			c0.2,0.2,0.2,0.6,0,0.8l-4,4C15.3,8.7,15.1,8.7,15,8.7z"/>
	</g>
	<g>
		<path class="weather-icon" d="M15,15.6c-0.1,0-0.2,0-0.3-0.1L2.3,8.3C2.1,8.2,2,7.8,2.1,7.6c0.2-0.3,0.5-0.4,0.8-0.2l12.4,7.1c0.3,0.2,0.4,0.5,0.2,0.8
			C15.4,15.5,15.2,15.6,15,15.6z"/>
	</g>
	<g>
		<path class="weather-icon" d="M3.6,13.6c-0.3,0-0.5-0.2-0.6-0.4c-0.1-0.3,0.1-0.6,0.4-0.7l4.9-1.3L7,6.2C7,5.9,7.1,5.6,7.4,5.5C7.7,5.5,8.1,5.6,8.1,6
			l1.5,5.5c0.1,0.3-0.1,0.6-0.4,0.7l-5.5,1.5C3.7,13.6,3.6,13.6,3.6,13.6z"/>
	</g>
	<g>
		<path class="weather-icon" d="M2.6,22.7c-0.2,0-0.4-0.1-0.5-0.3c-0.2-0.3-0.1-0.6,0.2-0.8l12.4-7.1c0.3-0.2,0.6-0.1,0.8,0.2c0.2,0.3,0.1,0.6-0.2,0.8
			L2.9,22.6C2.8,22.7,2.7,22.7,2.6,22.7z"/>
	</g>
	<g>
		<path class="weather-icon" d="M7.6,24.5c0,0-0.1,0-0.1,0C7.1,24.4,7,24.1,7,23.8l1.3-4.9l-4.9-1.3C3.1,17.4,3,17.1,3,16.8c0.1-0.3,0.4-0.5,0.7-0.4
			l5.5,1.5c0.3,0.1,0.5,0.4,0.4,0.7L8.1,24C8.1,24.3,7.8,24.5,7.6,24.5z"/>
	</g>
	<g>
		<path class="weather-icon" d="M15,29.9c-0.3,0-0.6-0.3-0.6-0.6l0-14.3c0-0.3,0.3-0.6,0.6-0.6c0.3,0,0.6,0.3,0.6,0.6l0,14.3C15.6,29.6,15.3,29.9,15,29.9
			z"/>
	</g>
	<g>
		<path class="weather-icon" d="M11,26.4c-0.1,0-0.3-0.1-0.4-0.2c-0.2-0.2-0.2-0.6,0-0.8l4-4c0.2-0.2,0.6-0.2,0.8,0l4,4c0.2,0.2,0.2,0.6,0,0.8
			c-0.2,0.2-0.6,0.2-0.8,0L15,22.7l-3.6,3.6C11.3,26.4,11.1,26.4,11,26.4z"/>
	</g>
	<g>
		<path class="weather-icon" d="M27.4,22.7c-0.1,0-0.2,0-0.3-0.1l-12.4-7.2c-0.3-0.2-0.4-0.5-0.2-0.8c0.2-0.3,0.5-0.4,0.8-0.2l12.4,7.2
			c0.3,0.2,0.4,0.5,0.2,0.8C27.8,22.6,27.6,22.7,27.4,22.7z"/>
	</g>
	<g>
		<path class="weather-icon" d="M22.4,24.5c-0.3,0-0.5-0.2-0.6-0.4l-1.5-5.5c-0.1-0.3,0.1-0.6,0.4-0.7l5.5-1.5c0.3-0.1,0.6,0.1,0.7,0.4
			c0.1,0.3-0.1,0.6-0.4,0.7l-4.9,1.3l1.3,4.9c0.1,0.3-0.1,0.6-0.4,0.7C22.5,24.5,22.5,24.5,22.4,24.5z"/>
	</g>
	<g>
		<path class="weather-icon" d="M15,15.6c-0.2,0-0.4-0.1-0.5-0.3c-0.2-0.3-0.1-0.6,0.2-0.8l12.4-7.2c0.3-0.2,0.6-0.1,0.8,0.2c0.2,0.3,0.1,0.6-0.2,0.8
			l-12.4,7.2C15.2,15.5,15.1,15.6,15,15.6z"/>
	</g>
	<g>
		<path class="weather-icon" d="M26.4,13.6c0,0-0.1,0-0.1,0l-5.5-1.5c-0.3-0.1-0.5-0.4-0.4-0.7L21.9,6c0.1-0.3,0.4-0.5,0.7-0.4C22.9,5.6,23,5.9,23,6.2
			l-1.3,4.9l4.9,1.3c0.3,0.1,0.5,0.4,0.4,0.7C26.9,13.4,26.7,13.6,26.4,13.6z"/>
	</g>
</g>
</svg>
