<?xml version="1.0" encoding="utf-8"?>
<!-- Generator: Adobe Illustrator 24.1.0, SVG Export Plug-In . SVG Version: 6.00 Build 0)  -->
<svg version="1.1" id="Layer_1" xmlns="http://www.w3.org/2000/svg" xmlns:xlink="http://www.w3.org/1999/xlink" x="0px" y="0px"
	 viewBox="0 0 30 30" style="enable-background:new 0 0 30 30;" xml:space="preserve">
	 <style>
        .weather-icon {
            fill: #ffffff;
        }
    </style>
<g>
	<g>
		<g>
			<path class="weather-icon" d="M22.7,24.3H4.5c-2.5,0-4.5-2-4.5-4.5c0-2.5,2-4.5,4.5-4.5c0.2,0,0.4,0,0.5,0c-0.1-0.3-0.1-0.7-0.1-1c0-3.3,2.7-6,6-6
				c3.1,0,5.7,2.4,5.9,5.5c0.6-0.3,1.3-0.5,1.9-0.5c2.2,0,4,1.8,4,4c0,0.3,0,0.7-0.1,1c0,0,0,0,0.1,0c1.7,0,3,1.4,3,3
				C25.7,22.9,24.4,24.3,22.7,24.3z M4.5,16.3c-1.9,0-3.4,1.6-3.4,3.5c0,1.9,1.5,3.5,3.4,3.5h18.2c1.1,0,1.9-0.9,1.9-2
				c0-1.1-0.9-2-1.9-2c-0.3,0-0.5,0-0.7,0.1c-0.2,0.1-0.5,0-0.6-0.1c-0.2-0.2-0.2-0.4-0.1-0.6c0.2-0.4,0.4-0.9,0.4-1.4
				c0-1.6-1.3-3-2.9-3c-0.8,0-1.6,0.3-2.1,0.9c-0.2,0.2-0.4,0.2-0.6,0.1c-0.2-0.1-0.3-0.3-0.3-0.6c0-0.1,0-0.3,0-0.5
				c0-2.7-2.2-5-4.9-5c-2.7,0-4.9,2.2-4.9,5c0,0.5,0.1,1,0.2,1.5c0,0.1,0,0.1,0,0.2c0,0,0,0,0,0c0,0,0,0,0,0c0,0.3-0.2,0.5-0.5,0.5
				c-0.1,0-0.2,0-0.2-0.1C5.2,16.3,4.8,16.3,4.5,16.3z"/>
		</g>
	</g>
	<g>
		<g>
			<path class="weather-icon" d="M5.5,14.9c-0.3,0-0.5-0.2-0.5-0.5v0c0-0.3,0.2-0.5,0.5-0.5S6,14,6,14.3C6,14.6,5.8,14.9,5.5,14.9z"/>
		</g>
	</g>
	<g>
		<g>
			<path class="weather-icon" d="M27,21h-1.9c-0.3,0-0.5-0.2-0.5-0.5s0.2-0.5,0.5-0.5H27c1.1,0,1.9-0.9,1.9-2c0-1.1-0.9-2-1.9-2c-0.2,0-0.5,0-0.7,0.1
				c-0.2,0.1-0.4,0-0.6-0.1c-0.2-0.2-0.2-0.4-0.1-0.6C25.8,15,26,14.5,26,14c0-1.6-1.3-3-2.9-3c-0.8,0-1.6,0.3-2.1,0.9
				c-0.2,0.2-0.4,0.2-0.6,0.1C20.1,12,20,11.8,20,11.5c0-0.1,0-0.3,0-0.5c0-2.7-2.2-5-4.9-5c-1.9,0-3.7,1.2-4.4,2.9
				c-0.1,0.3-0.4,0.4-0.7,0.3C9.8,9.1,9.6,8.8,9.7,8.6C10.7,6.4,12.8,5,15.2,5c3.1,0,5.7,2.4,5.9,5.5c0.6-0.3,1.3-0.5,1.9-0.5
				c2.2,0,4,1.8,4,4c0,0.3,0,0.6-0.1,1c0,0,0,0,0.1,0c1.7,0,3,1.4,3,3C30,19.7,28.7,21,27,21z"/>
		</g>
	</g>
</g>
</svg>
