<?xml version="1.0" encoding="utf-8"?>
<!-- Generator: Adobe Illustrator 24.1.0, SVG Export Plug-In . SVG Version: 6.00 Build 0)  -->
<svg version="1.1" id="Layer_1" xmlns="http://www.w3.org/2000/svg" xmlns:xlink="http://www.w3.org/1999/xlink" x="0px" y="0px"
	 viewBox="0 0 30 30" style="enable-background:new 0 0 30 30;" xml:space="preserve">
	 <style>
        .weather-icon {
            fill: #ffffff;
        }
    </style>
<g>
	<g>
		<path class="weather-icon" d="M13.1,13.3H0.8c-0.4,0-0.6-0.3-0.6-0.6c0-0.4,0.3-0.6,0.6-0.6h12.2c2.1,0,3.9-1.7,3.9-3.9s-1.7-3.9-3.9-3.9S9.2,6,9.2,8.2
			c0,0.4-0.3,0.6-0.6,0.6S7.9,8.5,7.9,8.2c0-2.8,2.3-5.2,5.2-5.2s5.2,2.3,5.2,5.2S15.9,13.3,13.1,13.3z"/>
	</g>
	<g>
		<path class="weather-icon" d="M18.2,28.8c-2.8,0-5.2-2.3-5.2-5.2c0-0.4,0.3-0.6,0.6-0.6s0.6,0.3,0.6,0.6c0,2.1,1.7,3.9,3.9,3.9s3.9-1.7,3.9-3.9
			s-1.7-3.9-3.9-3.9H0.8c-0.4,0-0.6-0.3-0.6-0.6s0.3-0.6,0.6-0.6h17.4c2.8,0,5.2,2.3,5.2,5.2S21.1,28.8,18.2,28.8z"/>
	</g>
	<g>
		<path class="weather-icon" d="M25.3,15.9h-7.7c-0.4,0-0.6-0.3-0.6-0.6c0-0.4,0.3-0.6,0.6-0.6h7.7c1.8,0,3.2-1.4,3.2-3.2s-1.4-3.2-3.2-3.2
			s-3.2,1.4-3.2,3.2c0,0.4-0.3,0.6-0.6,0.6s-0.6-0.3-0.6-0.6c0-2.5,2-4.5,4.5-4.5s4.5,2,4.5,4.5S27.8,15.9,25.3,15.9z"/>
	</g>
</g>
<g>
	<path class="weather-icon" d="M21.4,1.2c-0.7,0-1.3,0.6-1.3,1.3s0.6,1.3,1.3,1.3s1.3-0.6,1.3-1.3S22.2,1.2,21.4,1.2z"/>
</g>
<g>
	<path class="weather-icon" d="M26.8,19.1c-0.7,0-1.3,0.6-1.3,1.3s0.6,1.3,1.3,1.3s1.3-0.6,1.3-1.3S27.5,19.1,26.8,19.1z"/>
</g>
<g>
	<path class="weather-icon" d="M9,23c-0.7,0-1.3,0.6-1.3,1.3s0.6,1.3,1.3,1.3s1.3-0.6,1.3-1.3S9.7,23,9,23z"/>
</g>
<g>
	<path class="weather-icon" d="M3.7,6.1C3,6.1,2.4,6.7,2.4,7.4S3,8.7,3.7,8.7S5,8.1,5,7.4S4.4,6.1,3.7,6.1z"/>
</g>
</svg>
