<?xml version="1.0" encoding="utf-8"?>
<!-- Generator: Adobe Illustrator 24.1.0, SVG Export Plug-In . SVG Version: 6.00 Build 0)  -->
<svg version="1.1" id="Layer_1" xmlns="http://www.w3.org/2000/svg" xmlns:xlink="http://www.w3.org/1999/xlink" x="0px" y="0px"
	 viewBox="0 0 30 30" style="enable-background:new 0 0 30 30;" xml:space="preserve">
	 <style>
        .weather-icon {
            fill: #ffffff;
        }
    </style>
<g>
	<g>
		<path class="weather-icon" d="M18.4,28.6c-0.3,0-0.6-0.3-0.6-0.6c0-3.8-3.1-6.8-6.8-6.8c-0.3,0-0.6-0.3-0.6-0.6s0.3-0.6,0.6-0.6c3.8,0,6.8-3.1,6.8-6.8
			c0-0.3,0.3-0.6,0.6-0.6S19,13,19,13.3c0,3.8,3.1,6.8,6.8,6.8c0.3,0,0.6,0.3,0.6,0.6s-0.3,0.6-0.6,0.6c-3.8,0-6.8,3.1-6.8,6.8
			C19,28.4,18.7,28.6,18.4,28.6z M14,20.7c2,0.8,3.6,2.4,4.4,4.4c0.8-2,2.4-3.6,4.4-4.4c-2-0.8-3.6-2.4-4.4-4.4
			C17.6,18.3,16,19.9,14,20.7z"/>
	</g>
	<g>
		<path class="weather-icon" d="M23,12.7c-0.3,0-0.6-0.3-0.6-0.6c0-2.5-2-4.5-4.5-4.5c-0.3,0-0.6-0.3-0.6-0.6c0-0.3,0.3-0.6,0.6-0.6c2.5,0,4.5-2,4.5-4.5
			c0-0.3,0.3-0.6,0.6-0.6s0.6,0.3,0.6,0.6c0,2.5,2,4.5,4.5,4.5c0.3,0,0.6,0.3,0.6,0.6c0,0.3-0.3,0.6-0.6,0.6c-2.5,0-4.5,2-4.5,4.5
			C23.5,12.5,23.3,12.7,23,12.7z M20.3,7c1.1,0.6,2.1,1.5,2.6,2.6c0.6-1.1,1.5-2.1,2.6-2.6c-1.1-0.6-2.1-1.5-2.6-2.6
			C22.4,5.5,21.5,6.5,20.3,7z"/>
	</g>
	<g>
		<path class="weather-icon" d="M8.2,19.5c-0.3,0-0.6-0.3-0.6-0.6c0-3.1-2.6-5.7-5.7-5.7c-0.3,0-0.6-0.3-0.6-0.6s0.3-0.6,0.6-0.6c3.1,0,5.7-2.6,5.7-5.7
			c0-0.3,0.3-0.6,0.6-0.6c0.3,0,0.6,0.3,0.6,0.6c0,3.1,2.6,5.7,5.7,5.7c0.3,0,0.6,0.3,0.6,0.6s-0.3,0.6-0.6,0.6
			c-3.1,0-5.7,2.6-5.7,5.7C8.7,19.3,8.5,19.5,8.2,19.5z M4.7,12.7c1.6,0.7,2.8,2,3.5,3.5c0.7-1.6,2-2.8,3.5-3.5
			c-1.6-0.7-2.8-2-3.5-3.5C7.5,10.8,6.2,12,4.7,12.7z"/>
	</g>
</g>
</svg>
