<?xml version="1.0" encoding="utf-8"?>
<!-- Generator: Adobe Illustrator 24.1.0, SVG Export Plug-In . SVG Version: 6.00 Build 0)  -->
<svg version="1.1" id="Layer_1" xmlns="http://www.w3.org/2000/svg" xmlns:xlink="http://www.w3.org/1999/xlink" x="0px" y="0px"
	 viewBox="0 0 30 30" style="enable-background:new 0 0 30 30;" xml:space="preserve">
	 <style>
        .weather-icon {
            fill: #ffffff;
        }
    </style>
<g>
	<g>
		<g>
			<path class="weather-icon" d="M19.9,12.1c-0.4-3.1-3-5.5-6.2-5.5c-3.3,0-6,2.6-6.2,5.9c0.3,0,0.7,0,1,0c0.2-2.7,2.4-4.8,5.2-4.8c2.6,0,4.8,1.9,5.1,4.4
				C19.2,12.1,19.5,12.1,19.9,12.1z"/>
			<path class="weather-icon" d="M26.1,22.3C26.1,22.3,26,22.3,26.1,22.3l-19.2,0c-2,0-3.6-1.6-3.6-3.5c-0.3,0-0.7,0-1,0c0.1,2.5,2.1,4.6,4.7,4.6h19.3
				c0.9,0,1.7-0.5,2.3-1C27.7,22.3,26.9,22.3,26.1,22.3z"/>
		</g>
	</g>
	<g>
		<path class="weather-icon" d="M10.2,14.5H6.1c-0.4,0-0.7-0.2-0.7-0.5c0-0.3,0.3-0.5,0.7-0.5h4.1c0.4,0,0.7,0.2,0.7,0.5C10.9,14.3,10.6,14.5,10.2,14.5z"
			/>
	</g>
	<g>
		<path class="weather-icon" d="M29.3,14.5h-15c-0.4,0-0.7-0.2-0.7-0.5c0-0.3,0.3-0.5,0.7-0.5h15c0.4,0,0.7,0.2,0.7,0.5C30,14.3,29.7,14.5,29.3,14.5z"/>
	</g>
	<g>
		<path class="weather-icon" d="M14.3,17.7H0.7c-0.4,0-0.7-0.2-0.7-0.5s0.3-0.5,0.7-0.5h13.6c0.4,0,0.7,0.2,0.7,0.5S14.7,17.7,14.3,17.7z"/>
	</g>
	<g>
		<path class="weather-icon" d="M23.9,17.7h-5.5c-0.4,0-0.7-0.2-0.7-0.5s0.3-0.5,0.7-0.5h5.5c0.4,0,0.7,0.2,0.7,0.5S24.2,17.7,23.9,17.7z"/>
	</g>
	<g>
		<path class="weather-icon" d="M19.8,20.8h-9.5c-0.4,0-0.7-0.2-0.7-0.5c0-0.3,0.3-0.5,0.7-0.5h9.5c0.4,0,0.7,0.2,0.7,0.5C20.5,20.6,20.1,20.8,19.8,20.8z
			"/>
	</g>
	<g>
		<path class="weather-icon" d="M29.3,20.8h-5.5c-0.4,0-0.7-0.2-0.7-0.5c0-0.3,0.3-0.5,0.7-0.5h5.5c0.4,0,0.7,0.2,0.7,0.5C30,20.6,29.7,20.8,29.3,20.8z"
			/>
	</g>
</g>
</svg>
