<?xml version="1.0" encoding="utf-8"?>
<!-- Generator: Adobe Illustrator 24.1.0, SVG Export Plug-In . SVG Version: 6.00 Build 0)  -->
<svg version="1.1" id="Layer_1" xmlns="http://www.w3.org/2000/svg" xmlns:xlink="http://www.w3.org/1999/xlink" x="0px" y="0px"
	 viewBox="0 0 30 30" style="enable-background:new 0 0 30 30;" xml:space="preserve">
	 <style>
        .weather-icon {
            fill: #ffffff;
        }
    </style>
<g>
	<g>
		<path class="weather-icon" d="M26.5,18H5.3C2.4,18,0,15.7,0,13c0-2.7,2.3-4.9,5.2-4.9c0.2,0,0.4,0,0.6,0c-0.1-0.3-0.1-0.7-0.1-1c0-3.6,3.1-6.6,6.9-6.6
			c3.6,0,6.6,2.6,6.9,6c0.7-0.4,1.5-0.6,2.3-0.6c2.6,0,4.6,2,4.6,4.4c0,0.3,0,0.7-0.1,1c0,0,0,0,0.1,0c1.9,0,3.5,1.5,3.5,3.3
			C30,16.5,28.4,18,26.5,18z M5.3,9.3c-2.2,0-4,1.7-4,3.7c0,2,1.8,3.7,4,3.7h21.2c1.2,0,2.2-0.9,2.2-2.1c0-1.1-1-2.1-2.2-2.1
			c-0.3,0-0.6,0.1-0.8,0.2c-0.2,0.1-0.5,0-0.7-0.2c-0.2-0.2-0.2-0.5-0.1-0.7c0.3-0.5,0.4-1,0.4-1.5c0-1.7-1.5-3.2-3.4-3.2
			c-0.9,0-1.8,0.4-2.5,1c-0.2,0.2-0.5,0.2-0.7,0.1c-0.2-0.1-0.4-0.4-0.3-0.7c0-0.1,0-0.3,0-0.5c0-2.9-2.6-5.3-5.7-5.3
			C9.6,1.8,7,4.1,7,7.1c0,0.5,0.1,1.1,0.3,1.6c0,0.1,0,0.1,0,0.2v0c0,0,0,0,0,0v0c0,0,0,0,0,0c0,0,0,0,0,0c0,0,0,0,0,0c0,0,0,0,0,0
			c0,0,0,0,0,0c0,0.3-0.3,0.6-0.6,0.6c-0.1,0-0.2,0-0.3-0.1C6.1,9.4,5.7,9.3,5.3,9.3z"/>
	</g>
	<g>
		<path class="weather-icon" d="M19.8,26.7c-0.3,0-0.6-0.3-0.6-0.6v-6.2c0-0.3,0.3-0.6,0.6-0.6c0.3,0,0.6,0.3,0.6,0.6v6.2C20.5,26.4,20.2,26.7,19.8,26.7z
			"/>
	</g>
	<g>
		<path class="weather-icon" d="M22.5,25.1c-0.1,0-0.2,0-0.3-0.1l-5.4-3.1c-0.3-0.2-0.4-0.6-0.2-0.9c0.2-0.3,0.6-0.4,0.9-0.2l5.4,3.1
			c0.3,0.2,0.4,0.6,0.2,0.9C23,25,22.7,25.1,22.5,25.1z"/>
	</g>
	<g>
		<path class="weather-icon" d="M17.1,25.1c-0.2,0-0.4-0.1-0.5-0.3c-0.2-0.3-0.1-0.7,0.2-0.9l5.4-3.1c0.3-0.2,0.7-0.1,0.9,0.2c0.2,0.3,0.1,0.7-0.2,0.9
			L17.4,25C17.3,25.1,17.2,25.1,17.1,25.1z"/>
	</g>
	<g>
		<path class="weather-icon" d="M9.9,26.7c-0.3,0-0.6-0.3-0.6-0.6v-6.2c0-0.3,0.3-0.6,0.6-0.6s0.6,0.3,0.6,0.6v6.2C10.5,26.4,10.2,26.7,9.9,26.7z"/>
	</g>
	<g>
		<path class="weather-icon" d="M12.6,25.1c-0.1,0-0.2,0-0.3-0.1l-5.4-3.1c-0.3-0.2-0.4-0.6-0.2-0.9c0.2-0.3,0.6-0.4,0.9-0.2l5.4,3.1
			c0.3,0.2,0.4,0.6,0.2,0.9C13,25,12.8,25.1,12.6,25.1z"/>
	</g>
	<g>
		<path class="weather-icon" d="M7.2,25.1c-0.2,0-0.4-0.1-0.5-0.3c-0.2-0.3-0.1-0.7,0.2-0.9l5.4-3.1c0.3-0.2,0.7-0.1,0.9,0.2c0.2,0.3,0.1,0.7-0.2,0.9
			L7.5,25C7.4,25.1,7.3,25.1,7.2,25.1z"/>
	</g>
</g>
<g>
	<path class="weather-icon" d="M23.1,29.5H6.9c-0.3,0-0.6-0.3-0.6-0.6c0-0.3,0.3-0.6,0.6-0.6h16.2c0.3,0,0.6,0.3,0.6,0.6C23.7,29.2,23.4,29.5,23.1,29.5z"
		/>
</g>
</svg>
