<?xml version="1.0" encoding="utf-8"?>
<!-- Generator: Adobe Illustrator 24.1.0, SVG Export Plug-In . SVG Version: 6.00 Build 0)  -->
<svg version="1.1" id="Layer_1" xmlns="http://www.w3.org/2000/svg" xmlns:xlink="http://www.w3.org/1999/xlink" x="0px" y="0px"
	 viewBox="0 0 30 30" style="enable-background:new 0 0 30 30;" xml:space="preserve">
	 <style>
        .weather-icon {
            fill: #ffffff;
        }
    </style>
<g>
	<g>
		<path class="weather-icon" d="M21.8,28.1c0-1.8,1-3.4,2.6-4.4c-1.6-1-2.6-2.6-2.6-4.4c0,0,0,0,0,0c0-1.8,1-3.4,2.6-4.4c-1.6-1-2.6-2.6-2.6-4.4
			c0,0,0,0,0,0c0-1.8,1-3.4,2.6-4.4c-1.6-1-2.6-2.6-2.6-4.4c0,0,0,0,0,0c0-0.3,0.3-0.6,0.6-0.6c0.3,0,0.6,0.3,0.6,0.6
			c0,1.7,1.2,3.2,3,3.8c0.3,0.1,0.4,0.4,0.4,0.6c0,0.3-0.2,0.4-0.5,0.5C24.2,7.4,23,9,23,10.6c0,0,0,0,0,0c0,1.7,1.2,3.2,3,3.8
			c0.3,0.1,0.4,0.4,0.4,0.6c0,0.3-0.2,0.4-0.5,0.5c-1.8,0.6-2.9,2.1-2.9,3.8c0,0,0,0,0,0c0,1.7,1.2,3.2,3,3.8
			c0.3,0.1,0.4,0.4,0.4,0.6c0,0.3-0.2,0.4-0.5,0.5c-1.8,0.6-2.9,2.2-2.9,3.8c0,0,0,0,0,0c0,0.3-0.3,0.6-0.6,0.6
			C22.1,28.7,21.8,28.4,21.8,28.1C21.8,28.1,21.8,28.1,21.8,28.1z"/>
	</g>
	<g>
		<path class="weather-icon" d="M12.7,28.1c0-1.8,1-3.4,2.6-4.4c-1.6-1-2.6-2.6-2.6-4.4c0,0,0,0,0,0c0-1.8,1-3.4,2.6-4.4c-1.6-1-2.6-2.6-2.6-4.4
			c0,0,0,0,0,0c0-1.8,1-3.4,2.6-4.4c-1.6-1-2.6-2.6-2.6-4.4c0,0,0,0,0,0c0-0.3,0.3-0.6,0.6-0.6c0.3,0,0.6,0.3,0.6,0.6
			c0,1.7,1.2,3.2,3,3.8c0.3,0.1,0.4,0.4,0.4,0.6c0,0.3-0.2,0.4-0.5,0.5C15,7.4,13.9,9,13.9,10.6c0,0,0,0,0,0c0,1.7,1.2,3.2,3,3.8
			c0.3,0.1,0.4,0.4,0.4,0.6c0,0.3-0.2,0.4-0.5,0.5c-1.8,0.6-2.9,2.1-2.9,3.8c0,0,0,0,0,0c0,1.7,1.2,3.2,3,3.8
			c0.3,0.1,0.4,0.4,0.4,0.6c0,0.3-0.2,0.4-0.5,0.5c-1.8,0.6-2.9,2.2-2.9,3.8c0,0,0,0,0,0c0,0.3-0.3,0.6-0.6,0.6
			C13,28.7,12.7,28.4,12.7,28.1C12.7,28.1,12.7,28.1,12.7,28.1z"/>
	</g>
	<g>
		<path class="weather-icon" d="M3.6,28.1c0-1.8,1-3.4,2.6-4.4c-1.6-1-2.6-2.6-2.6-4.4c0,0,0,0,0,0c0-1.8,1-3.4,2.6-4.4c-1.6-1-2.6-2.6-2.6-4.4
			c0,0,0,0,0,0c0-1.8,1-3.4,2.6-4.4c-1.6-1-2.6-2.6-2.6-4.4c0,0,0,0,0,0c0-0.3,0.3-0.6,0.6-0.6c0.3,0,0.6,0.3,0.6,0.6
			c0,1.7,1.2,3.2,3,3.8C8,5.8,8.2,6.1,8.1,6.3c0,0.3-0.2,0.4-0.5,0.5C5.9,7.4,4.7,9,4.7,10.6c0,0,0,0,0,0c0,1.7,1.2,3.2,3,3.8
			c0.3,0.1,0.4,0.4,0.4,0.6c0,0.3-0.2,0.4-0.5,0.5c-1.8,0.6-2.9,2.1-2.9,3.8c0,0,0,0,0,0c0,1.7,1.2,3.2,3,3.8
			c0.3,0.1,0.4,0.4,0.4,0.6c0,0.3-0.2,0.4-0.5,0.5c-1.8,0.6-2.9,2.2-2.9,3.8c0,0,0,0,0,0c0,0.3-0.3,0.6-0.6,0.6
			C3.9,28.7,3.6,28.4,3.6,28.1C3.6,28.1,3.6,28.1,3.6,28.1z"/>
	</g>
</g>
</svg>
