<?xml version="1.0" encoding="utf-8"?>
<!-- Generator: Adobe Illustrator 24.1.0, SVG Export Plug-In . SVG Version: 6.00 Build 0)  -->
<svg version="1.1" id="Layer_1" xmlns="http://www.w3.org/2000/svg" xmlns:xlink="http://www.w3.org/1999/xlink" x="0px" y="0px"
	 viewBox="0 0 30 30" style="enable-background:new 0 0 30 30;" xml:space="preserve">
	 <style>
        .weather-icon {
            fill: #ffffff;
        }
    </style>
<g>
	<g>
		<path class="weather-icon" d="M20.6,15.6c-0.3,0-0.6-0.3-0.6-0.6c0-2.7-2.2-5-5-5s-5,2.2-5,5c0,0.3-0.3,0.6-0.6,0.6c-0.3,0-0.6-0.3-0.6-0.6
			c0-3.4,2.8-6.2,6.2-6.2s6.2,2.8,6.2,6.2C21.2,15.3,20.9,15.6,20.6,15.6z"/>
	</g>
	<g>
		<path class="weather-icon" d="M29.3,19.3H0.7c-0.3,0-0.6-0.3-0.6-0.6s0.3-0.6,0.6-0.6h28.5c0.3,0,0.6,0.3,0.6,0.6S29.6,19.3,29.3,19.3z"/>
	</g>
	<g>
		<path class="weather-icon" d="M29.3,23.1H0.7c-0.3,0-0.6-0.3-0.6-0.6s0.3-0.6,0.6-0.6h28.5c0.3,0,0.6,0.3,0.6,0.6S29.6,23.1,29.3,23.1z"/>
	</g>
	<g>
		<path class="weather-icon" d="M29.3,26.8H0.7c-0.3,0-0.6-0.3-0.6-0.6s0.3-0.6,0.6-0.6h28.5c0.3,0,0.6,0.3,0.6,0.6S29.6,26.8,29.3,26.8z"/>
	</g>
	<g>
		<path class="weather-icon" d="M26.8,15.6h-3.7c-0.3,0-0.6-0.3-0.6-0.6c0-0.3,0.3-0.6,0.6-0.6h3.7c0.3,0,0.6,0.3,0.6,0.6C27.4,15.3,27.1,15.6,26.8,15.6z
			"/>
	</g>
	<g>
		<path class="weather-icon" d="M6.9,15.6H3.2c-0.3,0-0.6-0.3-0.6-0.6c0-0.3,0.3-0.6,0.6-0.6h3.7c0.3,0,0.6,0.3,0.6,0.6C7.6,15.3,7.3,15.6,6.9,15.6z"/>
	</g>
	<g>
		<path class="weather-icon" d="M21.5,10.9c-0.2,0-0.4-0.1-0.5-0.3c-0.2-0.3-0.1-0.7,0.1-0.9l3-2.2c0.3-0.2,0.7-0.1,0.9,0.1c0.2,0.3,0.1,0.7-0.1,0.9
			l-3,2.2C21.8,10.8,21.6,10.9,21.5,10.9z"/>
	</g>
	<g>
		<path class="weather-icon" d="M8.5,10.9c-0.1,0-0.3,0-0.4-0.1l-3-2.2C4.8,8.4,4.8,8,5,7.7c0.2-0.3,0.6-0.3,0.9-0.1l3,2.2C9.1,10,9.2,10.4,9,10.6
			C8.9,10.8,8.7,10.9,8.5,10.9z"/>
	</g>
	<g>
		<path class="weather-icon" d="M17.5,8c-0.1,0-0.1,0-0.2,0c-0.3-0.1-0.5-0.5-0.4-0.8l1.1-3.5c0.1-0.3,0.5-0.5,0.8-0.4c0.3,0.1,0.5,0.5,0.4,0.8l-1.1,3.5
			C18,7.8,17.8,8,17.5,8z"/>
	</g>
	<g>
		<path class="weather-icon" d="M12.5,8c-0.3,0-0.5-0.2-0.6-0.4L10.8,4c-0.1-0.3,0.1-0.7,0.4-0.8c0.3-0.1,0.7,0.1,0.8,0.4l1.1,3.5
			c0.1,0.3-0.1,0.7-0.4,0.8C12.6,7.9,12.6,8,12.5,8z"/>
	</g>
</g>
</svg>
