<?xml version="1.0" encoding="utf-8"?>
<!-- Generator: Adobe Illustrator 24.1.0, SVG Export Plug-In . SVG Version: 6.00 Build 0)  -->
<svg version="1.1" id="Layer_1" xmlns="http://www.w3.org/2000/svg" xmlns:xlink="http://www.w3.org/1999/xlink" x="0px" y="0px"
	 viewBox="0 0 30 30" style="enable-background:new 0 0 30 30;" xml:space="preserve">
	 <style>
        .weather-icon {
            fill: #ffffff;
        }
    </style>
<g>
	<g>
		<g>
			<path class="weather-icon" d="M27.4,25.6H12.1c-2.1,0-3.8-1.7-3.8-3.7c0-2.1,1.7-3.7,3.8-3.7c0.1,0,0.2,0,0.3,0c0-0.2,0-0.4,0-0.7
				c0-2.7,2.3-4.9,5.1-4.9c2.6,0,4.7,1.9,5,4.3c0.5-0.2,1-0.4,1.6-0.4c1.9,0,3.4,1.5,3.4,3.3c0,0.2,0,0.4-0.1,0.7
				c1.4,0,2.5,1.2,2.5,2.5C30,24.4,28.8,25.6,27.4,25.6z M12.1,19.2c-1.5,0-2.8,1.2-2.8,2.6c0,1.5,1.2,2.6,2.8,2.6h15.3
				c0.8,0,1.5-0.6,1.5-1.4c0-0.8-0.7-1.4-1.5-1.4c-0.2,0-0.4,0-0.6,0.1c-0.2,0.1-0.5,0-0.6-0.1c-0.2-0.2-0.2-0.4-0.1-0.6
				c0.2-0.3,0.3-0.7,0.3-1.1c0-1.2-1.1-2.2-2.3-2.2c-0.7,0-1.3,0.3-1.7,0.7c-0.2,0.2-0.4,0.2-0.6,0.1c-0.2-0.1-0.3-0.3-0.3-0.6
				c0-0.1,0-0.2,0-0.4c0-2.1-1.8-3.8-4-3.8c-2.2,0-4,1.7-4,3.8c0,0.4,0.1,0.8,0.2,1.2c0,0.1,0,0.1,0,0.2c0,0,0,0,0,0c0,0,0,0,0,0
				c0,0,0,0,0,0c0,0,0,0,0,0c0,0,0,0,0,0c0,0,0,0,0,0c0,0.3-0.2,0.5-0.5,0.5c-0.1,0-0.2,0-0.2-0.1C12.7,19.3,12.4,19.2,12.1,19.2z"
				/>
		</g>
	</g>
	<g>
		<g>
			<path class="weather-icon" d="M9.8,20.1C9.8,20.1,9.8,20.1,9.8,20.1c-2.8-0.3-4.8-2.7-4.8-5.4c0-3,2.4-5.4,5.4-5.4c2.6,0,4.8,1.8,5.3,4.3
				c0.1,0.3-0.1,0.6-0.4,0.6c-0.3,0.1-0.6-0.1-0.6-0.4c-0.4-2-2.2-3.4-4.2-3.4c-2.4,0-4.3,1.9-4.3,4.3c0,2.2,1.6,4,3.8,4.3
				c0.3,0,0.5,0.3,0.5,0.6C10.3,19.9,10.1,20.1,9.8,20.1z"/>
		</g>
	</g>
	<g>
		<g>
			<path class="weather-icon" d="M10.5,8.2c-0.3,0-0.5-0.2-0.5-0.5V4.4c0-0.3,0.2-0.5,0.5-0.5c0.3,0,0.5,0.2,0.5,0.5v3.3C11,8,10.8,8.2,10.5,8.2z"/>
		</g>
	</g>
	<g>
		<g>
			<path class="weather-icon" d="M5.5,10.3c-0.1,0-0.3-0.1-0.4-0.2L2.8,7.8c-0.2-0.2-0.2-0.6,0-0.8c0.2-0.2,0.6-0.2,0.8,0l2.3,2.3c0.2,0.2,0.2,0.6,0,0.8
				C5.8,10.2,5.6,10.3,5.5,10.3z"/>
		</g>
	</g>
	<g>
		<g>
			<path class="weather-icon" d="M3.4,15.3H0.2c-0.3,0-0.5-0.2-0.5-0.5c0-0.3,0.2-0.5,0.5-0.5h3.3c0.3,0,0.5,0.2,0.5,0.5C4,15,3.7,15.3,3.4,15.3z"/>
		</g>
	</g>
	<g>
		<g>
			<path class="weather-icon" d="M3.2,22.6c-0.1,0-0.3-0.1-0.4-0.2c-0.2-0.2-0.2-0.6,0-0.8l2.3-2.3c0.2-0.2,0.6-0.2,0.8,0c0.2,0.2,0.2,0.6,0,0.8l-2.3,2.3
				C3.5,22.5,3.3,22.6,3.2,22.6z"/>
		</g>
	</g>
	<g>
		<g>
			<path class="weather-icon" d="M15.5,10.3c-0.1,0-0.3-0.1-0.4-0.2c-0.2-0.2-0.2-0.6,0-0.8l2.3-2.3c0.2-0.2,0.6-0.2,0.8,0c0.2,0.2,0.2,0.6,0,0.8
				l-2.3,2.3C15.7,10.2,15.6,10.3,15.5,10.3z"/>
		</g>
	</g>
</g>
</svg>
