<?xml version="1.0" encoding="utf-8"?>
<!-- Generator: Adobe Illustrator 24.1.0, SVG Export Plug-In . SVG Version: 6.00 Build 0)  -->
<svg version="1.1" id="Layer_1" xmlns="http://www.w3.org/2000/svg" xmlns:xlink="http://www.w3.org/1999/xlink" x="0px" y="0px"
	 viewBox="0 0 30 30" style="enable-background:new 0 0 30 30;" xml:space="preserve">
	 <style>
        .weather-icon {
            fill: #ffffff;
        }
    </style>
<g>
	<g>
		<g>
			<path class="weather-icon" d="M26.6,18.4H5.6c-2.8,0-5.1-2.3-5.1-5.2C0.5,10.4,2.8,8,5.6,8c0.2,0,0.4,0,0.6,0C6.2,7.7,6.1,7.3,6.1,6.9
				C6.1,3.1,9.2,0,13,0c3.6,0,6.5,2.8,6.8,6.3c0.7-0.4,1.4-0.6,2.2-0.6c2.5,0,4.6,2.1,4.6,4.6c0,0.4,0,0.7-0.1,1.1c0,0,0.1,0,0.1,0
				c1.9,0,3.4,1.6,3.4,3.5C30,16.9,28.5,18.4,26.6,18.4z M5.6,9.3c-2.2,0-3.9,1.8-3.9,4c0,2.2,1.8,4,3.9,4h20.9c1.2,0,2.2-1,2.2-2.3
				c0-1.2-1-2.3-2.2-2.3c-0.3,0-0.6,0.1-0.8,0.2c-0.2,0.1-0.5,0-0.7-0.2c-0.2-0.2-0.2-0.5-0.1-0.7c0.3-0.5,0.4-1.1,0.4-1.6
				C25.4,8.5,23.9,7,22,7c-0.9,0-1.8,0.4-2.4,1.1c-0.2,0.2-0.5,0.3-0.7,0.1c-0.2-0.1-0.4-0.4-0.3-0.6c0-0.2,0-0.4,0-0.6
				c0-3.1-2.5-5.7-5.6-5.7c-3.1,0-5.6,2.6-5.6,5.7c0,0.6,0.1,1.2,0.3,1.8c0,0.1,0,0.1,0,0.2c0,0,0,0,0,0c0,0,0,0,0,0
				c0,0.3-0.3,0.6-0.6,0.6c-0.1,0-0.2,0-0.3-0.1C6.4,9.3,6,9.3,5.6,9.3z"/>
		</g>
	</g>
	<g>
		<g>
			<path class="weather-icon" d="M7.3,24.6c-0.1,0-0.1,0-0.2,0c-0.3-0.1-0.5-0.5-0.4-0.8l1.2-3.7c0.1-0.3,0.5-0.5,0.8-0.4c0.3,0.1,0.5,0.5,0.4,0.8
				l-1.2,3.7C7.7,24.4,7.5,24.6,7.3,24.6z"/>
		</g>
	</g>
	<g>
		<g>
			<path class="weather-icon" d="M10.9,29.5c-0.1,0-0.1,0-0.2,0c-0.3-0.1-0.5-0.5-0.4-0.8l1.2-3.7c0.1-0.3,0.5-0.5,0.8-0.4c0.3,0.1,0.5,0.5,0.4,0.8
				l-1.2,3.7C11.4,29.3,11.2,29.5,10.9,29.5z"/>
		</g>
	</g>
	<g>
		<g>
			<path class="weather-icon" d="M17.1,24.6c-0.1,0-0.1,0-0.2,0c-0.3-0.1-0.5-0.5-0.4-0.8l1.2-3.7c0.1-0.3,0.5-0.5,0.8-0.4c0.3,0.1,0.5,0.5,0.4,0.8
				l-1.2,3.7C17.6,24.4,17.3,24.6,17.1,24.6z"/>
		</g>
	</g>
	<g>
		<g>
			<path class="weather-icon" d="M20.8,29.5c-0.1,0-0.1,0-0.2,0c-0.3-0.1-0.5-0.5-0.4-0.8l1.2-3.7c0.1-0.3,0.5-0.5,0.8-0.4c0.3,0.1,0.5,0.5,0.4,0.8
				l-1.2,3.7C21.3,29.3,21,29.5,20.8,29.5z"/>
		</g>
	</g>
</g>
</svg>
