<?xml version="1.0" encoding="utf-8"?>
<!-- Generator: Adobe Illustrator 24.1.0, SVG Export Plug-In . SVG Version: 6.00 Build 0)  -->
<svg version="1.1" id="Layer_1" xmlns="http://www.w3.org/2000/svg" xmlns:xlink="http://www.w3.org/1999/xlink" x="0px" y="0px"
	 viewBox="0 0 30 30" style="enable-background:new 0 0 30 30;" xml:space="preserve">
	 <style>
        .weather-icon {
            fill: #ffffff;
        }
    </style>
<g>
	<g>
		<path class="weather-icon" d="M25.5,17.3H6c-2.6,0-4.8-2.2-4.8-4.8c0-2.7,2.1-4.8,4.8-4.8c0.2,0,0.4,0,0.6,0C6.6,7.3,6.5,6.9,6.5,6.6
			c0-3.6,2.9-6.4,6.4-6.4c3.3,0,6.1,2.6,6.3,5.9c0.6-0.4,1.3-0.6,2.1-0.6c2.3,0,4.3,1.9,4.3,4.3c0,0.4,0,0.7-0.1,1c0,0,0.1,0,0.1,0
			c1.8,0,3.2,1.5,3.2,3.2C28.7,15.8,27.3,17.3,25.5,17.3z M6,8.7c-2,0-3.6,1.7-3.6,3.7c0,2,1.6,3.7,3.6,3.7h19.5
			c1.1,0,2.1-0.9,2.1-2.1c0-1.2-0.9-2.1-2.1-2.1c-0.3,0-0.5,0-0.8,0.1c-0.2,0.1-0.5,0-0.6-0.1c-0.2-0.2-0.2-0.4-0.1-0.7
			c0.3-0.5,0.4-1,0.4-1.5c0-1.7-1.4-3.2-3.1-3.2c-0.9,0-1.7,0.4-2.3,1c-0.2,0.2-0.4,0.2-0.7,0.1c-0.2-0.1-0.4-0.4-0.3-0.6
			c0-0.2,0-0.3,0-0.6c0-2.9-2.3-5.3-5.2-5.3c-2.9,0-5.2,2.4-5.2,5.3c0,0.6,0.1,1.1,0.3,1.6c0,0.1,0,0.1,0,0.2v0c0,0,0,0,0,0
			C8,8.7,7.7,9,7.4,9c-0.1,0-0.2,0-0.3-0.1C6.8,8.8,6.4,8.7,6,8.7z"/>
	</g>
	<g>
		<path class="weather-icon" d="M8.7,23c-0.1,0-0.1,0-0.2,0c-0.3-0.1-0.5-0.4-0.4-0.7l1.1-3.4c0.1-0.3,0.4-0.5,0.7-0.4c0.3,0.1,0.5,0.4,0.4,0.7l-1.1,3.4
			C9.2,22.9,8.9,23,8.7,23z"/>
	</g>
	<g>
		<path class="weather-icon" d="M4.1,27.6c-0.1,0-0.1,0-0.2,0c-0.3-0.1-0.5-0.4-0.4-0.7l1.1-3.4c0.1-0.3,0.4-0.5,0.7-0.4c0.3,0.1,0.5,0.4,0.4,0.7
			l-1.1,3.4C4.6,27.4,4.4,27.6,4.1,27.6z"/>
	</g>
	<g>
		<path class="weather-icon" d="M15,29.9c-0.3,0-0.6-0.3-0.6-0.6v-5.7c0-0.3,0.3-0.6,0.6-0.6s0.6,0.3,0.6,0.6v5.7C15.6,29.6,15.3,29.9,15,29.9z"/>
	</g>
	<g>
		<path class="weather-icon" d="M17.5,28.4c-0.1,0-0.2,0-0.3-0.1l-5-2.9C12,25.4,11.9,25,12,24.7c0.2-0.3,0.5-0.4,0.8-0.2l5,2.9c0.3,0.2,0.4,0.5,0.2,0.8
			C17.9,28.3,17.7,28.4,17.5,28.4z"/>
	</g>
	<g>
		<path class="weather-icon" d="M12.5,28.4c-0.2,0-0.4-0.1-0.5-0.3c-0.2-0.3-0.1-0.6,0.2-0.8l5-2.9c0.3-0.2,0.6-0.1,0.8,0.2c0.2,0.3,0.1,0.6-0.2,0.8
			l-5,2.9C12.7,28.4,12.6,28.4,12.5,28.4z"/>
	</g>
	<g>
		<path class="weather-icon" d="M23,26.4c-0.3,0-0.6-0.3-0.6-0.6v-5.7c0-0.3,0.3-0.6,0.6-0.6c0.3,0,0.6,0.3,0.6,0.6v5.7C23.6,26.2,23.3,26.4,23,26.4z"/>
	</g>
	<g>
		<path class="weather-icon" d="M25.5,25c-0.1,0-0.2,0-0.3-0.1l-5-2.9c-0.3-0.2-0.4-0.5-0.2-0.8c0.2-0.3,0.5-0.4,0.8-0.2l5,2.9c0.3,0.2,0.4,0.5,0.2,0.8
			C25.9,24.9,25.7,25,25.5,25z"/>
	</g>
	<g>
		<path class="weather-icon" d="M20.5,25c-0.2,0-0.4-0.1-0.5-0.3c-0.2-0.3-0.1-0.6,0.2-0.8l5-2.9c0.3-0.2,0.6-0.1,0.8,0.2c0.2,0.3,0.1,0.6-0.2,0.8l-5,2.9
			C20.7,25,20.6,25,20.5,25z"/>
	</g>
</g>
</svg>
