<?xml version="1.0" encoding="utf-8"?>
<!-- Generator: Adobe Illustrator 24.1.0, SVG Export Plug-In . SVG Version: 6.00 Build 0)  -->
<svg version="1.1" id="Layer_1" xmlns="http://www.w3.org/2000/svg" xmlns:xlink="http://www.w3.org/1999/xlink" x="0px" y="0px"
	 viewBox="0 0 30 30" style="enable-background:new 0 0 30 30;" xml:space="preserve">
	 <style>
        .weather-icon {
            fill: #ffffff;
        }
    </style>
<g>
	<g>
		<path class="weather-icon" d="M12.1,16.1v11.2c0,0.3-0.2,0.5-0.5,0.5c-0.3,0-0.5-0.2-0.5-0.5V16.1c0-1.8-1.4-3.2-3.2-3.2s-3.2,1.4-3.2,3.2
			s1.4,3.2,3.2,3.2c0.3,0,0.5,0.2,0.5,0.5c0,0.3-0.2,0.5-0.5,0.5c-2.3,0-4.3-1.9-4.3-4.3s1.9-4.3,4.3-4.3S12.1,13.7,12.1,16.1z"/>
	</g>
	<g>
		<path class="weather-icon" d="M24.8,11.8c0,2.3-1.9,4.3-4.3,4.3c-0.3,0-0.5-0.2-0.5-0.5c0-0.3,0.2-0.5,0.5-0.5c1.8,0,3.2-1.4,3.2-3.2s-1.4-3.2-3.2-3.2
			s-3.2,1.4-3.2,3.2v15.4c0,0.3-0.2,0.5-0.5,0.5c-0.3,0-0.5-0.2-0.5-0.5V11.8c0-2.3,1.9-4.3,4.3-4.3S24.8,9.5,24.8,11.8z"/>
	</g>
	<g>
		<path class="weather-icon" d="M14.6,6v21.3c0,0.3-0.2,0.5-0.5,0.5c-0.3,0-0.5-0.2-0.5-0.5V6c0-1.5-1.2-2.7-2.7-2.7S8.2,4.5,8.2,6s1.2,2.7,2.7,2.7
			c0.3,0,0.5,0.2,0.5,0.5c0,0.3-0.2,0.5-0.5,0.5C8.8,9.7,7.2,8,7.2,6s1.7-3.7,3.7-3.7S14.6,3.9,14.6,6z"/>
	</g>
	<g>
		<path class="weather-icon" d="M19,20.9v6.4c0,0.3,0.2,0.5,0.5,0.5c0.3,0,0.5-0.2,0.5-0.5v-6.4c0-1.5,1.2-2.7,2.7-2.7c1.5,0,2.7,1.2,2.7,2.7
			c0,1.5-1.2,2.7-2.7,2.7c-0.3,0-0.5,0.2-0.5,0.5c0,0.3,0.2,0.5,0.5,0.5c2.1,0,3.7-1.7,3.7-3.7s-1.7-3.7-3.7-3.7S19,18.8,19,20.9z"
			/>
	</g>
</g>
</svg>
