<?xml version="1.0" encoding="utf-8"?>
<!-- Generator: Adobe Illustrator 24.1.0, SVG Export Plug-In . SVG Version: 6.00 Build 0)  -->
<svg version="1.1" id="Layer_1" xmlns="http://www.w3.org/2000/svg" xmlns:xlink="http://www.w3.org/1999/xlink" x="0px" y="0px"
	 viewBox="0 0 30 30" style="enable-background:new 0 0 30 30;" xml:space="preserve">
	 <style>
        .weather-icon {
            fill: #ffffff;
        }
    </style>
<g>
	<g>
		<g>
			<path class="weather-icon" d="M26.1,17.7H5.1c-2.8,0-5.1-2.2-5.1-4.9c0-2.7,2.3-4.9,5.1-4.9c0.2,0,0.4,0,0.6,0c-0.1-0.3-0.1-0.7-0.1-1
				c0-3.6,3.1-6.5,6.8-6.5c3.6,0,6.5,2.6,6.8,5.9C20,6,20.8,5.8,21.6,5.8c2.5,0,4.6,2,4.6,4.3c0,0.3,0,0.7-0.1,1c0,0,0,0,0.1,0
				c1.9,0,3.4,1.5,3.4,3.3C29.5,16.2,28,17.7,26.1,17.7z M5.1,9.2c-2.2,0-3.9,1.6-3.9,3.7c0,2,1.8,3.6,3.9,3.6h20.9
				c1.2,0,2.2-0.9,2.2-2.1c0-1.1-1-2.1-2.2-2.1c-0.3,0-0.6,0.1-0.8,0.2c-0.2,0.1-0.5,0-0.7-0.2c-0.2-0.2-0.2-0.5-0.1-0.7
				c0.3-0.5,0.4-1,0.4-1.5c0-1.7-1.5-3.1-3.3-3.1c-0.9,0-1.8,0.4-2.4,1c-0.2,0.2-0.5,0.2-0.7,0.1C18.2,8,18,7.7,18.1,7.5
				c0-0.1,0-0.3,0-0.5c0-2.9-2.5-5.3-5.6-5.3c-3.1,0-5.6,2.4-5.6,5.3C6.9,7.5,7,8,7.2,8.6c0,0.1,0,0.1,0,0.2v0c0,0,0,0,0,0v0
				c0,0,0,0,0,0c0,0,0,0,0,0c0,0,0,0,0,0c0,0,0,0,0,0c0,0,0,0,0,0c0,0.3-0.3,0.6-0.6,0.6c-0.1,0-0.2,0-0.3-0.1
				C6,9.2,5.6,9.2,5.1,9.2z"/>
		</g>
	</g>
	<g>
		<g>
			<path class="weather-icon" d="M14.8,30c-0.3,0-0.6-0.3-0.6-0.6v-6.2c0-0.3,0.3-0.6,0.6-0.6s0.6,0.3,0.6,0.6v6.2C15.4,29.7,15.1,30,14.8,30z"/>
		</g>
	</g>
	<g>
		<g>
			<path class="weather-icon" d="M17.4,28.5c-0.1,0-0.2,0-0.3-0.1l-5.3-3.1c-0.3-0.2-0.4-0.5-0.2-0.8c0.2-0.3,0.5-0.4,0.8-0.2l5.3,3.1
				c0.3,0.2,0.4,0.5,0.2,0.8C17.9,28.4,17.6,28.5,17.4,28.5z"/>
		</g>
	</g>
	<g>
		<g>
			<path class="weather-icon" d="M12.1,28.5c-0.2,0-0.4-0.1-0.5-0.3c-0.2-0.3-0.1-0.7,0.2-0.8l5.3-3.1c0.3-0.2,0.7-0.1,0.8,0.2c0.2,0.3,0.1,0.7-0.2,0.8
				l-5.3,3.1C12.3,28.4,12.2,28.5,12.1,28.5z"/>
		</g>
	</g>
	<g>
		<g>
			<path class="weather-icon" d="M24.6,26.3c-0.3,0-0.6-0.3-0.6-0.6v-6.2c0-0.3,0.3-0.6,0.6-0.6c0.3,0,0.6,0.3,0.6,0.6v6.2C25.2,26,25,26.3,24.6,26.3z"/>
		</g>
	</g>
	<g>
		<g>
			<path class="weather-icon" d="M27.3,24.8c-0.1,0-0.2,0-0.3-0.1l-5.3-3.1c-0.3-0.2-0.4-0.5-0.2-0.8c0.2-0.3,0.5-0.4,0.8-0.2l5.3,3.1
				c0.3,0.2,0.4,0.5,0.2,0.8C27.7,24.7,27.5,24.8,27.3,24.8z"/>
		</g>
	</g>
	<g>
		<g>
			<path class="weather-icon" d="M21.9,24.8c-0.2,0-0.4-0.1-0.5-0.3c-0.2-0.3-0.1-0.7,0.2-0.8l5.3-3.1c0.3-0.2,0.7-0.1,0.8,0.2c0.2,0.3,0.1,0.7-0.2,0.8
				l-5.3,3.1C22.2,24.7,22.1,24.8,21.9,24.8z"/>
		</g>
	</g>
	<g>
		<g>
			<path class="weather-icon" d="M4.9,26.3c-0.3,0-0.6-0.3-0.6-0.6v-6.2c0-0.3,0.3-0.6,0.6-0.6c0.3,0,0.6,0.3,0.6,0.6v6.2C5.5,26,5.3,26.3,4.9,26.3z"/>
		</g>
	</g>
	<g>
		<g>
			<path class="weather-icon" d="M7.6,24.8c-0.1,0-0.2,0-0.3-0.1L2,21.6c-0.3-0.2-0.4-0.5-0.2-0.8c0.2-0.3,0.5-0.4,0.8-0.2l5.3,3.1
				c0.3,0.2,0.4,0.5,0.2,0.8C8,24.7,7.8,24.8,7.6,24.8z"/>
		</g>
	</g>
	<g>
		<g>
			<path class="weather-icon" d="M2.3,24.8c-0.2,0-0.4-0.1-0.5-0.3c-0.2-0.3-0.1-0.7,0.2-0.8l5.3-3.1c0.3-0.2,0.7-0.1,0.8,0.2c0.2,0.3,0.1,0.7-0.2,0.8
				l-5.3,3.1C2.5,24.7,2.4,24.8,2.3,24.8z"/>
		</g>
	</g>
</g>
</svg>
