<?xml version="1.0" encoding="utf-8"?>
<!-- Generator: Adobe Illustrator 24.1.0, SVG Export Plug-In . SVG Version: 6.00 Build 0)  -->
<svg version="1.1" id="Layer_1" xmlns="http://www.w3.org/2000/svg" xmlns:xlink="http://www.w3.org/1999/xlink" x="0px" y="0px"
	 viewBox="0 0 30 30" style="enable-background:new 0 0 30 30;" xml:space="preserve">
	 <style>
        .weather-icon {
            fill: #ffffff;
        }
    </style>
<g>
	<g>
		<g>
			<path class="weather-icon" d="M15,22c-3.8,0-6.9-3.1-6.9-6.9s3.1-6.9,6.9-6.9s6.9,3.1,6.9,6.9S18.8,22,15,22z M15,9.3c-3.2,0-5.8,2.6-5.8,5.8
				s2.6,5.8,5.8,5.8s5.8-2.6,5.8-5.8S18.2,9.3,15,9.3z"/>
		</g>
	</g>
	<g>
		<g>
			<path class="weather-icon" d="M15,5.8c-0.3,0-0.6-0.3-0.6-0.6V0.6c0-0.3,0.3-0.6,0.6-0.6s0.6,0.3,0.6,0.6v4.6C15.6,5.6,15.3,5.8,15,5.8z"/>
		</g>
	</g>
	<g>
		<g>
			<path class="weather-icon" d="M15,30.1c-0.3,0-0.6-0.3-0.6-0.6v-4.6c0-0.3,0.3-0.6,0.6-0.6s0.6,0.3,0.6,0.6v4.6C15.6,29.8,15.3,30.1,15,30.1z"/>
		</g>
	</g>
	<g>
		<g>
			<path class="weather-icon" d="M8.1,8.7c-0.1,0-0.3-0.1-0.4-0.2L4.4,5.3C4.2,5,4.2,4.7,4.4,4.4c0.2-0.2,0.6-0.2,0.8,0l3.3,3.3c0.2,0.2,0.2,0.6,0,0.8
				C8.4,8.6,8.2,8.7,8.1,8.7z"/>
		</g>
	</g>
	<g>
		<g>
			<path class="weather-icon" d="M25.2,25.8c-0.1,0-0.3-0.1-0.4-0.2l-3.3-3.3c-0.2-0.2-0.2-0.6,0-0.8c0.2-0.2,0.6-0.2,0.8,0l3.3,3.3
				c0.2,0.2,0.2,0.6,0,0.8C25.5,25.8,25.3,25.8,25.2,25.8z"/>
		</g>
	</g>
	<g>
		<g>
			<path class="weather-icon" d="M5.2,15.6H0.6c-0.3,0-0.6-0.3-0.6-0.6c0-0.3,0.3-0.6,0.6-0.6h4.6c0.3,0,0.6,0.3,0.6,0.6C5.8,15.4,5.5,15.6,5.2,15.6z"/>
		</g>
	</g>
	<g>
		<g>
			<path class="weather-icon" d="M29.4,15.6L29.4,15.6l-4.6,0c-0.3,0-0.6-0.3-0.6-0.6c0-0.3,0.3-0.6,0.6-0.6h0l4.6,0c0.3,0,0.6,0.3,0.6,0.6
				S29.7,15.6,29.4,15.6z"/>
		</g>
	</g>
	<g>
		<g>
			<path class="weather-icon" d="M4.8,25.8c-0.1,0-0.3-0.1-0.4-0.2c-0.2-0.2-0.2-0.6,0-0.8l3.3-3.3c0.2-0.2,0.6-0.2,0.8,0c0.2,0.2,0.2,0.6,0,0.8l-3.3,3.3
				C5.1,25.8,4.9,25.8,4.8,25.8z"/>
		</g>
	</g>
	<g>
		<g>
			<path class="weather-icon" d="M21.9,8.7c-0.1,0-0.3-0.1-0.4-0.2c-0.2-0.2-0.2-0.6,0-0.8l3.3-3.3c0.2-0.2,0.6-0.2,0.8,0c0.2,0.2,0.2,0.6,0,0.8l-3.3,3.3
				C22.2,8.6,22.1,8.7,21.9,8.7z"/>
		</g>
	</g>
</g>
</svg>
