<?xml version="1.0" encoding="utf-8"?>
<!-- Generator: Adobe Illustrator 24.1.0, SVG Export Plug-In . SVG Version: 6.00 Build 0)  -->
<svg version="1.1" id="Layer_1" xmlns="http://www.w3.org/2000/svg" xmlns:xlink="http://www.w3.org/1999/xlink" x="0px" y="0px"
	 viewBox="0 0 30 30" style="enable-background:new 0 0 30 30;" xml:space="preserve">
	 <style>
        .weather-icon {
            fill: #ffffff;
        }
    </style>
<g>
	<g>
		<path class="weather-icon" d="M7.4,9C7.1,9,6.8,8.7,6.8,8.4v0c0-0.3,0.3-0.6,0.6-0.6C7.7,7.8,8,8.1,8,8.4C8,8.7,7.7,9,7.4,9z"/>
	</g>
	<g>
		<path class="weather-icon" d="M25.5,17.3h-8.2c-0.3,0-0.6-0.3-0.6-0.6c0-0.3,0.3-0.6,0.6-0.6h8.2c1.1,0,2.1-0.9,2.1-2.1c0-1.2-0.9-2.1-2.1-2.1
			c-0.3,0-0.5,0.1-0.8,0.2c-0.2,0.1-0.5,0-0.6-0.1c-0.2-0.2-0.2-0.4-0.1-0.7c0.3-0.5,0.4-1,0.4-1.5c0-1.7-1.4-3.2-3.1-3.2
			c-0.9,0-1.7,0.3-2.3,1c-0.2,0.2-0.4,0.2-0.7,0.1c-0.2-0.1-0.4-0.4-0.3-0.6c0-0.1,0-0.3,0-0.5c0-2.9-2.3-5.3-5.2-5.3
			c-2.9,0-5.2,2.4-5.2,5.3c0,0.6,0.1,1.1,0.3,1.6C8,8.4,8,8.7,7.8,8.8C7.7,9,7.4,9,7.2,8.9C6.9,8.8,6.5,8.7,6.1,8.7
			c-2,0-3.6,1.7-3.6,3.7c0,2,1.6,3.7,3.6,3.7h0.6c0.3,0,0.6,0.3,0.6,0.6c0,0.3-0.3,0.6-0.6,0.6H6.1c-2.6,0-4.8-2.2-4.8-4.8
			c0-2.7,2.1-4.8,4.8-4.8c0.2,0,0.4,0,0.6,0C6.6,7.3,6.5,6.9,6.5,6.6c0-3.5,2.9-6.4,6.4-6.4c3.3,0,6.1,2.6,6.3,5.9
			c0.6-0.4,1.3-0.5,2.1-0.5c2.3,0,4.3,1.9,4.3,4.3c0,0.3,0,0.7-0.1,1c1.8,0,3.3,1.4,3.3,3.2C28.7,15.8,27.3,17.3,25.5,17.3z"/>
	</g>
	<g>
		<path class="weather-icon" d="M8.1,29.9c-0.1,0-0.2,0-0.3-0.1c-0.2-0.1-0.4-0.4-0.3-0.6L9.1,23H6.4c-0.2,0-0.4-0.1-0.5-0.3c-0.1-0.2-0.1-0.4,0-0.5
			l4-9.1c0.1-0.2,0.3-0.3,0.5-0.3h5.2c0.2,0,0.4,0.1,0.5,0.3c0.1,0.2,0.1,0.4,0,0.6l-3.1,6h2.5c0.2,0,0.4,0.1,0.5,0.3
			c0.1,0.2,0.1,0.4-0.1,0.6l-7.4,9.1C8.5,29.8,8.3,29.9,8.1,29.9z M7.3,21.9h2.6c0.2,0,0.3,0.1,0.5,0.2c0.1,0.1,0.1,0.3,0.1,0.5
			l-1.1,4.4l5-6.2h-2.2c-0.2,0-0.4-0.1-0.5-0.3c-0.1-0.2-0.1-0.4,0-0.6l3.1-6h-3.9L7.3,21.9z"/>
	</g>
	<g>
		<path class="weather-icon" d="M22.4,23c-0.1,0-0.1,0-0.2,0c-0.3-0.1-0.5-0.4-0.4-0.7l1.1-3.4c0.1-0.3,0.4-0.5,0.7-0.4c0.3,0.1,0.5,0.4,0.4,0.7L23,22.6
			C22.9,22.8,22.7,23,22.4,23z"/>
	</g>
	<g>
		<path class="weather-icon" d="M17.9,26.4c-0.1,0-0.1,0-0.2,0c-0.3-0.1-0.5-0.4-0.4-0.7l1.1-3.4c0.1-0.3,0.4-0.5,0.7-0.4c0.3,0.1,0.5,0.4,0.4,0.7
			L18.4,26C18.3,26.3,18.1,26.4,17.9,26.4z"/>
	</g>
</g>
</svg>
