<?xml version="1.0" encoding="utf-8"?>
<!-- Generator: Adobe Illustrator 24.1.0, SVG Export Plug-In . SVG Version: 6.00 Build 0)  -->
<svg version="1.1" id="Layer_1" xmlns="http://www.w3.org/2000/svg" xmlns:xlink="http://www.w3.org/1999/xlink" x="0px" y="0px"
	 viewBox="0 0 30 30" style="enable-background:new 0 0 30 30;" xml:space="preserve">
	 <style>
        .weather-icon {
            fill: #ffffff;
        }
    </style>
<g>
	<g>
		<path class="weather-icon" d="M15,17.8c-1.9,0-3.9-0.4-5.4-1.1c-1.9-0.8-2.9-2.1-2.9-3.5c0-0.2,0-0.4,0-0.5c0-0.2,0.3-0.4,0.5-0.4
			c0.2,0,0.4,0.3,0.4,0.5c0,0.1,0,0.2,0,0.4c0,2.5,4.3,3.7,7.4,3.7c4.4,0,5.4-0.6,6.6-1.7c0.2-0.2,0.5-0.2,0.7,0
			c0.2,0.2,0.2,0.5,0,0.7C20.7,17.2,19.3,17.8,15,17.8z"/>
	</g>
	<g>
		<path class="weather-icon" d="M9.9,9.8c-0.2,0-0.3-0.1-0.4-0.2C9.4,9.4,9.5,9.1,9.7,9c1.5-0.9,3.4-1.3,5.3-1.3c1.6,0,5.4,0.1,7.6,1.3
			c0.2,0.1,0.3,0.4,0.2,0.6c-0.1,0.2-0.4,0.3-0.6,0.2c-1.4-0.7-4-1.2-7.1-1.2c-1.7,0-3.5,0.4-4.8,1.2C10.1,9.8,10,9.8,9.9,9.8z"/>
	</g>
	<g>
		<path class="weather-icon" d="M15,15c-3.2,0-6.2-0.7-8-1.9c-1.4-0.9-2.1-2-2.1-3.2c0-0.3,0.1-0.6,0.2-0.9c0.1-0.2,0.4-0.3,0.6-0.2
			C5.9,8.9,6,9.1,5.9,9.4C5.8,9.6,5.8,9.7,5.8,9.9c0,1.1,0.9,1.9,1.7,2.4c1.7,1.1,4.5,1.8,7.5,1.8c5.3,0,8.3-1.1,8.3-2.9
			c0-0.2,0-0.4-0.1-0.5c-0.1-0.2,0-0.5,0.2-0.6c0.2-0.1,0.5,0,0.6,0.2c0.1,0.3,0.2,0.6,0.2,0.9C24.2,12.9,22.6,15,15,15z"/>
	</g>
	<g>
		<path class="weather-icon" d="M15,12.2c-3.5,0-11-1.3-11-5.1c0-1.6,1.6-3,4.8-4c2.4-0.8,5.1-1.1,6.3-1.1c3.9,0,6.1,0.9,6.2,1c0.2,0.1,0.3,0.4,0.2,0.6
			C21.3,3.9,21,4,20.8,3.9c0,0-2.1-0.9-5.8-0.9c-1.1,0-3.7,0.3-6,1.1C7.5,4.6,4.9,5.6,4.9,7.2c0,2.8,6.5,4.1,10.1,4.1
			c1.5,0,4.2-0.2,6.5-0.7c2.3-0.5,3.6-1.3,3.6-2c0-0.7-1.3-1.5-3.6-2c-2.3-0.5-5-0.7-6.6-0.7c-2.9,0-6.2,0.9-8,2.2
			C6.8,8.2,6.5,8.2,6.4,7.9C6.2,7.7,6.3,7.5,6.5,7.3c1.9-1.4,5.4-2.4,8.5-2.4c1.6,0,4.4,0.2,6.8,0.8C24.6,6.3,26,7.3,26,8.6
			C26,11.6,17.3,12.2,15,12.2z"/>
	</g>
	<g>
		<path class="weather-icon" d="M14.1,20.5c-3.4,0-4.8-1.6-5-2c-0.1-0.2,0-0.5,0.2-0.6c0.2-0.1,0.5,0,0.6,0.2c0,0.1,1,1.5,4.1,1.5c3,0,4.3-0.8,4.4-0.8
			c0.2-0.1,0.5-0.1,0.6,0.1c0.1,0.2,0.1,0.5-0.1,0.6C18.9,19.6,17.3,20.5,14.1,20.5z"/>
	</g>
	<g>
		<path class="weather-icon" d="M14.8,23.3c-2.5,0-2.9-1.1-3-1.2l0.9-0.3c0,0,0,0,0,0c0,0,0.3,0.6,2.1,0.6c1.9,0,2.4-0.7,2.4-0.7l0,0l0.8,0.5
			C17.9,22.3,17.2,23.3,14.8,23.3z"/>
	</g>
	<g>
		<path class="weather-icon" d="M14.8,25.7c-0.7,0-1.2-0.2-1.2-0.2c-0.2-0.1-0.4-0.4-0.3-0.6c0.1-0.2,0.4-0.4,0.6-0.3c0.1,0,1.5,0.5,2.7-0.6
			c0.2-0.2,0.5-0.2,0.7,0c0.2,0.2,0.2,0.5,0,0.7C16.5,25.5,15.5,25.7,14.8,25.7z"/>
	</g>
	<g>
		<path class="weather-icon" d="M15,27.9c-0.3,0-0.5-0.2-0.5-0.5c0-0.3,0.2-0.5,0.5-0.5c0,0,1.1,0,1.6-0.7c0.1-0.2,0.4-0.3,0.6-0.1
			c0.2,0.1,0.3,0.4,0.1,0.6C16.6,27.9,15.1,27.9,15,27.9z"/>
	</g>
</g>
</svg>
