<?xml version="1.0" encoding="utf-8"?>
<!-- Generator: Adobe Illustrator 24.1.0, SVG Export Plug-In . SVG Version: 6.00 Build 0)  -->
<svg version="1.1" id="Layer_1" xmlns="http://www.w3.org/2000/svg" xmlns:xlink="http://www.w3.org/1999/xlink" x="0px" y="0px"
	 viewBox="0 0 30 30" style="enable-background:new 0 0 30 30;" xml:space="preserve">
	 <style>
        .weather-icon {
            fill: #ffffff;
        }
    </style>
<g>
	<g>
		<g>
			<path class="weather-icon" d="M13.7,13H0.6C0.3,13,0,12.7,0,12.4s0.3-0.6,0.6-0.6h13.1c2.1,0,3.7-1.7,3.7-3.7s-1.7-3.7-3.7-3.7S10,5.9,10,8
				c0,0.3-0.3,0.6-0.6,0.6S8.7,8.3,8.7,8c0-2.8,2.2-5,5-5s5,2.2,5,5S16.5,13,13.7,13z"/>
		</g>
	</g>
	<g>
		<g>
			<path class="weather-icon" d="M18.7,28c-2.8,0-5-2.2-5-5c0-0.3,0.3-0.6,0.6-0.6S15,22.6,15,23c0,2.1,1.7,3.7,3.7,3.7s3.7-1.7,3.7-3.7s-1.7-3.7-3.7-3.7
				H0.6C0.3,19.2,0,19,0,18.6S0.3,18,0.6,18h18.1c2.8,0,5,2.2,5,5S21.5,28,18.7,28z"/>
		</g>
	</g>
	<g>
		<g>
			<path class="weather-icon" d="M25.6,15.5h-7.5c-0.3,0-0.6-0.3-0.6-0.6c0-0.3,0.3-0.6,0.6-0.6h7.5c1.7,0,3.1-1.4,3.1-3.1S27.3,8,25.6,8
				s-3.1,1.4-3.1,3.1c0,0.3-0.3,0.6-0.6,0.6s-0.6-0.3-0.6-0.6c0-2.4,2-4.4,4.4-4.4s4.4,2,4.4,4.4S28,15.5,25.6,15.5z"/>
		</g>
	</g>
</g>
</svg>
