<?xml version="1.0" standalone="no"?>
<!DOCTYPE svg PUBLIC "-//W3C//DTD SVG 20010904//EN"
 "http://www.w3.org/TR/2001/REC-SVG-20010904/DTD/svg10.dtd">
<svg version="1.0" xmlns="http://www.w3.org/2000/svg"
 width="250.000000pt" height="250.000000pt" viewBox="0 0 250.000000 250.000000"
 preserveAspectRatio="xMidYMid meet">
<metadata>
Created by potrace 1.11, written by Peter Selinger 2001-2013
</metadata>
<g transform="translate(0.000000,250.000000) scale(0.100000,-0.100000)"
fill="#000000" stroke="none">
<path d="M1855 2091 c-355 -93 -648 -218 -893 -382 -247 -164 -395 -325 -493
-534 -68 -145 -82 -215 -83 -410 0 -145 3 -183 23 -262 21 -85 41 -121 41 -74
0 11 13 60 29 109 97 297 284 519 525 626 76 34 131 49 118 33 -35 -45 -610
-815 -616 -825 -7 -12 7 -13 80 -7 366 28 608 104 844 266 379 259 607 757
613 1339 2 148 1 155 -18 157 -11 2 -87 -15 -170 -36z"/>
</g>
</svg>
