<?xml version="1.0" encoding="UTF-8"?> <!-- Generator: Adobe Illustrator 25.0.0, SVG Export Plug-In . SVG Version: 6.00 Build 0) --> <svg xmlns="http://www.w3.org/2000/svg" xmlns:xlink="http://www.w3.org/1999/xlink" version="1.1" id="Capa_1" x="0px" y="0px" viewBox="0 0 512 512" style="enable-background:new 0 0 512 512;" xml:space="preserve"> <style type="text/css"> .st0{fill:#68A437;stroke:#68A437;stroke-width:4;stroke-miterlimit:10;} </style> <g> <path class="st0" d="M374,294.8c-33.2-40.2-75.1-62.3-118-62.3s-84.7,22.1-118,62.3c-30.1,36.3-48,82-48,122.2 c0,18.2,5.4,32.1,16.2,41.1c9.7,8.1,23.3,12,41.6,12c18.6,0,40.1-4,59.1-7.5c17.3-3.2,35.3-6.5,49-6.5c11.5,0,27.1,2.9,43.6,5.9 l1.5,0.3h0.1c20.6,3.8,41.8,7.8,61.2,7.8c19.3,0,33.5-4,43.4-12.3c10.8-9,16.2-22.7,16.2-40.7C422.1,377,404.2,331.3,374,294.8z M394.3,443.9L394.3,443.9L394.3,443.9c-6.7,5.6-17,8.3-31.6,8.3c-18,0-39.5-4-58.4-7.5c-17.9-3.3-34.8-6.5-48.4-6.5 c-15.7,0-34.3,3.5-52.3,6.8c-17.3,3.2-38.9,7.1-56.1,7.1c-13.9,0-23.7-2.5-30-7.7l0,0l0,0c-2.4-2-9.6-8.1-9.6-27.2 c0-35.6,16.9-78,44-110.7c29.7-36,66.7-55.8,104.1-55.8s74.4,19.8,104.1,55.8c27.1,32.8,44,75.2,44,110.7 C404.1,435.6,396.7,441.8,394.3,443.9z"></path> </g> <g> <path class="st0" d="M394.1,128.2c0-22.4-6-43.6-17-59.7c-11.4-16.9-27.7-26.6-44.5-26.6s-33,9.7-44.5,26.6 c-10.9,16.1-17,37.3-17,59.7c0,22.5,6,43.7,17,59.7c11.4,16.9,27.7,26.6,44.5,26.6s33-9.7,44.5-26.6 C388.1,171.8,394.1,150.6,394.1,128.2z M362.3,178c-8.3,12.1-18.8,18.7-29.7,18.7s-21.4-6.6-29.7-18.7c-8.8-13-13.8-31.1-13.8-49.7 c0-18.5,5-36.6,13.8-49.7c8.3-12.1,18.8-18.7,29.7-18.7c10.9,0,21.4,6.6,29.7,18.7c8.8,13,13.8,31.1,13.8,49.7 C376.1,146.8,371.1,164.9,362.3,178z"></path> </g> <g> <path class="st0" d="M240.9,128.2c0-22.4-6-43.6-17-59.7c-11.4-16.9-27.7-26.6-44.5-26.6s-33,9.7-44.5,26.6 c-10.9,16.1-17,37.3-17,59.7c0,22.5,6,43.7,17,59.7c11.4,16.9,27.7,26.6,44.5,26.6s33-9.7,44.5-26.6 C234.9,171.8,240.9,150.6,240.9,128.2z M209.1,178c-8.3,12.1-18.8,18.7-29.7,18.7s-21.4-6.6-29.7-18.7c-8.8-13-13.8-31.1-13.8-49.7 s5-36.6,13.8-49.7c8.3-12.1,18.8-18.7,29.7-18.7s21.4,6.6,29.7,18.7c8.8,13,13.8,31.1,13.8,49.7S217.9,164.9,209.1,178z"></path> </g> <g> <path class="st0" d="M476.2,180.3c-4.4-1.6-9-2.5-13.8-2.5c-6.5,0-12.9,1.5-19.1,4.4c-15.7,7.3-28.5,22.6-35.3,41.9 c-5.5,15.9-6.2,32.6-2,46.9c4.5,15.4,14.2,26.6,27.1,31.5c4.5,1.7,9.1,2.5,13.8,2.5c6.3,0,12.9-1.5,19.2-4.4 c15.6-7.3,28.5-22.6,35.3-41.8c5.6-15.7,6.3-32.4,2-46.9C498.7,196.4,489.1,185.2,476.2,180.3z M484.3,252.9 c-5.1,14.5-14.8,26.3-25.9,31.6c-3.8,1.8-7.7,2.7-11.5,2.7c-2.6,0-5.1-0.4-7.5-1.3c-16.2-6.1-22.7-31.6-14.4-55.6 c5.1-14.5,14.8-26.3,25.9-31.6l0,0l0,0c4-1.8,7.8-2.7,11.4-2.7c2.6,0,5.2,0.5,7.5,1.4C486.1,203.3,492.7,228.7,484.3,252.9z"></path> </g> <g> <path class="st0" d="M106,271c4.2-14.3,3.4-30.9-2.1-46.8c-6.8-19.3-19.6-34.5-35.3-41.8c-6.3-2.9-12.7-4.4-19.2-4.4 c-4.8,0-9.4,0.8-13.8,2.5c-12.9,4.8-22.4,16-27,31.4c-4.3,14.5-3.6,31.1,2,46.9c6.8,19.3,19.6,34.5,35.3,41.9 c6.2,2.9,12.9,4.4,19.2,4.4c4.7,0,9.3-0.8,13.8-2.5C91.9,297.7,101.5,286.5,106,271z M72.6,285.7c-2.4,0.9-4.9,1.3-7.5,1.3 c-4.8,0-8.8-1.5-11.4-2.7c-11.1-5.2-20.8-17-25.9-31.5c-8.4-24.1-1.8-49.5,14.3-55.6c2.4-0.9,4.9-1.3,7.6-1.3 c4.8,0,8.8,1.5,11.4,2.7c11.2,5.2,20.8,17,25.8,31.6C95.4,254.2,88.8,279.7,72.6,285.7z"></path> </g> </svg> 