<?xml version="1.0" encoding="UTF-8"?> <!-- Generator: Adobe Illustrator 24.1.0, SVG Export Plug-In . SVG Version: 6.00 Build 0) --> <svg xmlns="http://www.w3.org/2000/svg" xmlns:xlink="http://www.w3.org/1999/xlink" version="1.1" id="Capa_1" x="0px" y="0px" viewBox="0 0 512 512" style="enable-background:new 0 0 512 512;" xml:space="preserve"> <style type="text/css"> .st0{fill:#68A437;} </style> <g> <g> <path class="st0" d="M498.1,419.3c-5.1-2.1-11,0.2-13.1,5.3c-14.1,33.4-46.5,55-82.8,55c-43.5,0-79.8-31.1-88-72.2 c0-0.2,0-0.3,0-0.5c0-4.4-0.6-8.7-1.7-12.7c-0.1-1.5-0.1-2.9-0.1-4.4c0-37.5,23.2-69.8,56-83.1l24.2,85.9c1.2,4.4,5.3,7.3,9.6,7.3 c0.9,0,1.8-0.1,2.7-0.4c5.3-1.5,8.4-7,6.9-12.3l-24.2-85.9c4.7-0.8,9.6-1.2,14.5-1.2c35.7,0,68,21.2,82.3,53.9 c2.2,5.1,8.1,7.4,13.2,5.2c5.1-2.2,7.4-8.1,5.2-13.2c-17.5-40-57-65.9-100.6-65.9c-6.8,0-13.5,0.6-20,1.8l-0.9-3 c-2.9-10.3-5.1-20.7-6.5-31.3c0,0,0,0,0,0c-0.8-6.1-1.4-12.3-1.7-18.4c0.9,4.6,5,8,9.8,8h13.7c18.9,0,34.3-15.4,34.3-34.3 s-15.4-34.3-34.3-34.3h-30l-76.7-68c4,1.2,8.2,1.8,12.5,1.8c24.8,0,45-20.2,45-45s-20.2-45-45-45s-45,20.2-45,45 c0,8.5,2.3,16.4,6.4,23.1c-7.2-3.3-15-5-23.1-5c-14.9,0-28.9,5.8-39.4,16.3l-81.9,81.9c0,0,0,0-0.1,0.1c-0.3,0.3-0.5,0.6-0.7,0.9 c0,0-0.1,0.1-0.1,0.1c0,0,0,0,0,0c-5.2,6.9-8.2,15.2-8.8,24.1H90.2c-5.5,0-10,4.5-10,10v12.2c0,20.8,16.9,37.8,37.8,37.8h11.9 l-5.1,22.1c-4.9-0.7-9.9-1-14.9-1C49.2,280.1,0,329.3,0,389.8c0,37,18.5,69.9,46.7,89.8H10c-5.5,0-10,4.5-10,10s4.5,10,10,10h99.8 c54.3,0,99.4-39.6,108.2-91.4c0.6,4.9,4.8,8.8,9.9,8.8h68c6.6,25.7,22.2,47.8,43.3,62.6h-63.5c-5.5,0-10,4.5-10,10s4.5,10,10,10 h126.6c44.3,0,84-26.4,101.2-67.2C505.6,427.3,503.2,421.4,498.1,419.3z M372.9,188.6h23.8c7.9,0,14.3,6.4,14.3,14.3 c0,7.9-6.4,14.3-14.3,14.3H383c-5.2,0-9.4,3.9-9.9,9c-0.1-3-0.2-6-0.2-9.1L372.9,188.6L372.9,188.6z M353.8,239H253.6 c-1.6-1.9-3.3-3.8-5.1-5.5L217,201.9l41.5-41.5l94.6,68.5C353.3,232.3,353.5,235.6,353.8,239z M339.1,259l-61.3,55.5l-5.8-36.3 c0-0.1,0-0.1,0-0.2c-1.2-6.6-3.2-13-5.9-19H339.1z M302.5,32.4c13.8,0,25,11.2,25,25s-11.2,25-25,25s-25-11.2-25-25 S288.7,32.4,302.5,32.4z M215.6,106c6.7-6.8,15.7-10.5,25.3-10.5s18.5,3.7,25.3,10.5l86.8,77.1V204l-89.5-64.8 c-1.8-1.3-3.8-1.9-5.9-1.9c-2.6,0-5.1,1-7.1,2.9l-50.5,50.5l-33.4-9.2l-20.7-5.7L215.6,106z M117.9,239c-9.8,0-17.8-8-17.8-17.8 V219h12c2.2,7.4,5.8,14.2,10.5,20H117.9z M109.8,479.6c-49.5,0-89.8-40.3-89.8-89.8s40.3-89.8,89.8-89.8c3.5,0,7,0.2,10.4,0.6 L100,387.6c-0.7,3,0,6.1,1.9,8.5s4.8,3.8,7.8,3.8h89.2C194,444.6,155.9,479.6,109.8,479.6z M122.3,379.8l17.3-74.6 c31.8,11.3,55.5,40,59.3,74.6H122.3z M144.2,285.6l6.1-26.5l47.9,27.7l15.7,68.6C203.1,322.5,177,296.5,144.2,285.6z M216.7,278.1 c-0.6-2.7-2.3-5-4.7-6.4l-64.7-37.4c-8.3-4.8-14.7-14.2-16.8-24.5c-1.3-6.2-0.9-12.1,1-17.2l29.1,8l37.1,10.2l36.7,36.7 c9.3,9.3,15.4,21,17.8,33.9l12.2,75.5c0,0-0.1,0-0.1,0h-29.4v0L216.7,278.1z M237.9,397v-20h26.4c13,0,24.2,8.4,28.3,20H237.9z M294.8,367.4c-2.9-2.2-6-4.2-9.4-5.7l-3.8-23.6l76.7-69.5c1.1,5.3,2.4,10.5,3.9,15.7l0.9,3.1 C328.6,300.6,302.5,330.6,294.8,367.4z"></path> </g> </g> <g> <g> <path class="st0" d="M502,379.8c-5.5,0-10,4.5-10,10l0,0.5c0,5.5,4.4,10,10,10c0,0,0,0,0,0c5.5,0,10-4.5,10-10l0-0.5 C512,384.3,507.5,379.8,502,379.8z"></path> </g> </g> <g> <g> <path class="st0" d="M243.4,482.5c-1.9-1.9-4.4-2.9-7.1-2.9c-2.6,0-5.2,1.1-7.1,2.9c-1.9,1.9-2.9,4.4-2.9,7.1 c0,2.6,1.1,5.2,2.9,7.1c1.9,1.9,4.4,2.9,7.1,2.9s5.2-1.1,7.1-2.9c1.9-1.9,2.9-4.4,2.9-7.1C246.3,486.9,245.3,484.4,243.4,482.5z"></path> </g> </g> </svg> 