<?xml version="1.0" encoding="UTF-8"?> <!-- Generator: Adobe Illustrator 25.0.0, SVG Export Plug-In . SVG Version: 6.00 Build 0) --> <svg xmlns="http://www.w3.org/2000/svg" xmlns:xlink="http://www.w3.org/1999/xlink" version="1.1" id="Capa_1" x="0px" y="0px" viewBox="0 0 512 512" style="enable-background:new 0 0 512 512;" xml:space="preserve"> <style type="text/css"> .st0{fill:#68A437;stroke:#68A437;stroke-width:3;stroke-miterlimit:10;} </style> <path class="st0" d="M255.6,480c-61.4,0-119-23.9-162.4-67.2S26,311.8,26,250.6c0-61.4,23.9-119,67.2-162.4 C136.6,44.8,194.2,21,255.6,21c61.2,0,118.8,24,162.2,67.4S485,189.3,485,250.6c0,61.4-23.9,119-67.2,162.3S316.9,480,255.6,480z M211.9,458.2c14.3,3,29,4.6,43.7,4.6c16.8,0,33.6-2,50-6l39.2-68.6l-40.2-53h-98.1L167,387.8L211.9,458.2z M92.5,386.1 c24.9,30.2,57.4,52.7,94.5,65.4l-35.7-56L92.5,386.1z M329.6,449.5c34.6-13,65.2-34.7,88.9-63.1l-58,9.1L329.6,449.5z M152.7,378.4 l40-53.5l-20.7-83l-81.3-27l-46.5,56c3.4,34.2,15.1,67.3,33.8,95.8L152.7,378.4z M358.8,378.3l74.5-11.8 C452,338,463.5,305,466.9,271l-46.5-56l-81.3,27l-20.7,82.7L358.8,378.3z M467.6,245.2c-0.9-32.4-8.8-63.3-23.6-91.7l-11.5,49.2 L467.6,245.2z M67,153.1c-14.6,28-22.7,59.6-23.6,91.7l35.2-42.4L67,153.1z M333.4,225.9l82.5-27.6l15.7-66.4 c-22.4-32.8-52.9-58.6-88.4-74.5L264.4,89v81.4L333.4,225.9z M177.7,225.4l69.2-55.5V88.7l-79.4-31.4c-35.7,16.5-66.1,42.4-88,74.7 l15.7,66.4L177.7,225.4z M255.6,73.6l64-25.5c-20.8-6.6-42.4-9.9-64.2-9.9s-43.3,3.3-63.9,9.9L255.6,73.6z"></path> </svg> 