<?xml version="1.0" encoding="UTF-8"?> <!-- Generator: Adobe Illustrator 24.1.0, SVG Export Plug-In . SVG Version: 6.00 Build 0) --> <svg xmlns="http://www.w3.org/2000/svg" xmlns:xlink="http://www.w3.org/1999/xlink" version="1.1" id="Capa_1" x="0px" y="0px" viewBox="0 0 512 512" style="enable-background:new 0 0 512 512;" xml:space="preserve"> <style type="text/css"> .st0{fill:#68A437;} </style> <g> <g> <path class="st0" d="M500.7,446.1L408,353.5c2.5-3.9,2.1-9.1-1.3-12.5c-3.4-3.4-8.7-3.8-12.5-1.3l-24.7-24.7 c18.5-27.5,30.1-59.2,33.5-92.4c4.6-45.4-6.4-91.4-30.9-129.6c-3-4.6-9.2-6-13.8-3c-4.6,3-6,9.2-3,13.8 c45.9,71.4,35.6,166.8-24.5,227c-70.9,70.9-186.4,70.9-257.4,0c-70.9-70.9-70.9-186.4,0-257.3c60.2-60.2,152.6-70.9,224.7-26 c4.7,2.9,10.9,1.5,13.8-3.2c2.9-4.7,1.5-10.9-3.2-13.8C270.5,6.7,224.9-3.7,180.1,1.2c-45.5,4.9-88.5,25.5-120.9,58 c-78.8,78.8-78.8,206.9,0,285.6c39.4,39.4,91.1,59.1,142.8,59.1c39.4,0,78.8-11.4,112.7-34.3l24.6,24.6 c-3.7,3.9-3.6,10.1,0.2,13.9c2,2,4.5,2.9,7.1,2.9c2.5,0,4.9-0.9,6.9-2.7l92.6,92.6c7.5,7.5,17.2,11.2,27.1,11.2 c9.9,0,19.9-3.8,27.4-11.4C515.6,485.6,515.7,461.1,500.7,446.1z M335.4,361.9l26.4-26.4l18.1,18.1L353.5,380L335.4,361.9z M486.4,486.5c-7.3,7.3-19,7.4-26.2,0.2l-92.6-92.5l26.4-26.4l92.6,92.6C493.7,467.5,493.6,479.2,486.4,486.5z"></path> </g> </g> <g> <g> <path class="st0" d="M345,59.4l-0.2-0.2c-3.9-3.9-10.2-3.9-14.1,0c-3.9,3.9-3.9,10.2,0,14.1l0.3,0.3c2,1.9,4.5,2.9,7.1,2.9 s5.1-1,7.1-2.9C349,69.6,349,63.3,345,59.4z"></path> </g> </g> <g> <g> <path class="st0" d="M202,48c-84.9,0-154,69.1-154,154s69.1,154,154,154s154-69.1,154-154S286.9,48,202,48z M202,335.9 c-73.9,0-134-60.1-134-134S128.1,68,202,68s134,60.1,134,134S275.9,335.9,202,335.9z"></path> </g> </g> <g> <g> <path class="st0" d="M442.3,12c-5.5,0-10,4.5-10,10v12.4c0,5.5,4.5,10,10,10s10-4.5,10-10V22C452.3,16.5,447.8,12,442.3,12z"></path> </g> </g> <g> <g> <path class="st0" d="M442.3,71.6c-5.5,0-10,4.5-10,10V94c0,5.5,4.5,10,10,10s10-4.5,10-10V81.6C452.3,76,447.8,71.6,442.3,71.6z"></path> </g> </g> <g> <g> <path class="st0" d="M478.3,48h-12.4c-5.5,0-10,4.5-10,10s4.5,10,10,10h12.4c5.5,0,10-4.5,10-10S483.8,48,478.3,48z"></path> </g> </g> <g> <g> <path class="st0" d="M418.7,48h-12.4c-5.5,0-10,4.5-10,10s4.5,10,10,10h12.4c5.5,0,10-4.5,10-10S424.3,48,418.7,48z"></path> </g> </g> <g> <g> <path class="st0" d="M61.9,412c-5.5,0-10,4.5-10,10v12.4c0,5.5,4.5,10,10,10s10-4.5,10-10V422C71.9,416.5,67.5,412,61.9,412z"></path> </g> </g> <g> <g> <path class="st0" d="M61.9,471.6c-5.5,0-10,4.5-10,10V494c0,5.5,4.5,10,10,10s10-4.5,10-10v-12.4C71.9,476,67.5,471.6,61.9,471.6z "></path> </g> </g> <g> <g> <path class="st0" d="M97.9,448H85.5c-5.5,0-10,4.5-10,10s4.5,10,10,10h12.4c5.5,0,10-4.5,10-10S103.4,448,97.9,448z"></path> </g> </g> <g> <g> <path class="st0" d="M38.4,448H25.9c-5.5,0-10,4.5-10,10s4.5,10,10,10h12.4c5.5,0,10-4.5,10-10S43.9,448,38.4,448z"></path> </g> </g> <g> <g> <path class="st0" d="M202,156c-5.5,0-10,4.5-10,10v12.4c0,5.5,4.5,10,10,10s10-4.5,10-10V166C212,160.4,207.5,156,202,156z"></path> </g> </g> <g> <g> <path class="st0" d="M202,215.5c-5.5,0-10,4.5-10,10V238c0,5.5,4.5,10,10,10s10-4.5,10-10v-12.4C212,220,207.5,215.5,202,215.5z"></path> </g> </g> <g> <g> <path class="st0" d="M238,192h-12.4c-5.5,0-10,4.5-10,10s4.5,10,10,10H238c5.5,0,10-4.5,10-10S243.5,192,238,192z"></path> </g> </g> <g> <g> <path class="st0" d="M178.4,192H166c-5.5,0-10,4.5-10,10s4.5,10,10,10h12.4c5.5,0,10-4.5,10-10S183.9,192,178.4,192z"></path> </g> </g> </svg> 