<?xml version="1.0" encoding="UTF-8"?> <!-- Generator: Adobe Illustrator 25.0.0, SVG Export Plug-In . SVG Version: 6.00 Build 0) --> <svg xmlns="http://www.w3.org/2000/svg" xmlns:xlink="http://www.w3.org/1999/xlink" version="1.1" id="Outline" x="0px" y="0px" viewBox="0 0 512 512" style="enable-background:new 0 0 512 512;" xml:space="preserve"> <style type="text/css"> .st0{fill:#68A437;} </style> <g> <path class="st0" d="M56,497c-22.6,0-41-18.4-41-41V88c0-22.6,18.4-41,41-41h47v-7c0-13.8,11.2-25,25-25s25,11.2,25,25v7h78v-7 c0-13.8,11.2-25,25-25s25,11.2,25,25v7h78v-7c0-13.8,11.2-25,25-25s25,11.2,25,25v7h47c22.6,0,41,18.4,41,41v368 c0,22.6-18.4,41-41,41H56z M33,456c0,12.7,10.3,23,23,23h400c12.7,0,23-10.3,23-23V161H33V456z M479,143V88c0-12.7-10.3-23-23-23 h-47v23c0,13.8-11.2,25-25,25s-25-11.2-25-25V65h-78v23c0,13.8-11.2,25-25,25s-25-11.2-25-25V65h-78v23c0,13.8-11.2,25-25,25 s-25-11.2-25-25V65H56c-12.7,0-23,10.3-23,23v55H479z M384,33c-3.9,0-7,3.1-7,7v48c0,3.9,3.1,7,7,7s7-3.1,7-7V40 C391,36.1,387.9,33,384,33z M256,33c-3.9,0-7,3.1-7,7v48c0,3.9,3.1,7,7,7c3.9,0,7-3.1,7-7V40C263,36.1,259.9,33,256,33z M128,33 c-3.9,0-7,3.1-7,7v48c0,3.9,3.1,7,7,7s7-3.1,7-7V40C135,36.1,131.9,33,128,33z"></path> <path class="st0" d="M384,16c13.3,0,24,10.7,24,24v8h48c22.1,0,40,17.9,40,40v368c0,22.1-17.9,40-40,40H56c-22.1,0-40-17.9-40-40 V88c0-22.1,17.9-40,40-40h48v-8c0-13.3,10.7-24,24-24s24,10.7,24,24v8h80v-8c0-13.3,10.7-24,24-24c13.3,0,24,10.7,24,24v8h80v-8 C360,26.7,370.7,16,384,16 M384,96c4.4,0,8-3.6,8-8V40c0-4.4-3.6-8-8-8s-8,3.6-8,8v48C376,92.4,379.6,96,384,96 M256,96 c4.4,0,8-3.6,8-8V40c0-4.4-3.6-8-8-8s-8,3.6-8,8v48C248,92.4,251.6,96,256,96 M128,96c4.4,0,8-3.6,8-8V40c0-4.4-3.6-8-8-8 c-4.4,0-8,3.6-8,8v48C120,92.4,123.6,96,128,96 M384,112c-13.3,0-24-10.7-24-24V64h-80v24c0,13.3-10.7,24-24,24 c-13.3,0-24-10.7-24-24V64h-80v24c0,13.3-10.7,24-24,24s-24-10.7-24-24V64H56c-13.2,0-24,10.8-24,24v56h448V88 c0-13.2-10.8-24-24-24h-48v24C408,101.3,397.3,112,384,112 M56,480h400c13.2,0,24-10.8,24-24V160H32v296C32,469.2,42.8,480,56,480 M384,14c-14.3,0-26,11.7-26,26v6h-76v-6c0-14.3-11.7-26-26-26c-14.3,0-26,11.7-26,26v6h-76v-6c0-14.3-11.7-26-26-26 s-26,11.7-26,26v6H56c-23.2,0-42,18.8-42,42v368c0,23.2,18.8,42,42,42h400c23.2,0,42-18.8,42-42V88c0-23.2-18.8-42-42-42h-46v-6 C410,25.7,398.3,14,384,14L384,14z M384,94c-3.3,0-6-2.7-6-6V40c0-3.3,2.7-6,6-6s6,2.7,6,6v48C390,91.3,387.3,94,384,94L384,94z M256,94c-3.3,0-6-2.7-6-6V40c0-3.3,2.7-6,6-6c3.3,0,6,2.7,6,6v48C262,91.3,259.3,94,256,94L256,94z M128,94c-3.3,0-6-2.7-6-6V40 c0-3.3,2.7-6,6-6c3.3,0,6,2.7,6,6v48C134,91.3,131.3,94,128,94L128,94z M410,66h46c12.1,0,22,9.9,22,22v54H34V88 c0-12.1,9.9-22,22-22h46v22c0,14.3,11.7,26,26,26s26-11.7,26-26V66h76v22c0,14.3,11.7,26,26,26c14.3,0,26-11.7,26-26V66h76v22 c0,14.3,11.7,26,26,26s26-11.7,26-26V66L410,66z M34,162h444v294c0,12.1-9.9,22-22,22H56c-12.1,0-22-9.9-22-22V162L34,162z"></path> </g> <g> <path class="st0" d="M408,265c-5,0-9-4-9-9v-32c0-5,4-9,9-9h32c5,0,9,4,9,9v32c0,5-4,9-9,9H408z M431,247v-14h-14v14H431z"></path> <path class="st0" d="M440,216c4.4,0,8,3.6,8,8v32c0,4.4-3.6,8-8,8h-32c-4.4,0-8-3.6-8-8v-32c0-4.4,3.6-8,8-8H440 M416,248h16v-16 h-16V248 M440,214h-32c-5.5,0-10,4.5-10,10v32c0,5.5,4.5,10,10,10h32c5.5,0,10-4.5,10-10v-32C450,218.5,445.5,214,440,214L440,214z M418,234h12v12h-12V234L418,234z"></path> </g> <g> <path class="st0" d="M248,425c-5,0-9-4-9-9v-32c0-5,4-9,9-9h32c5,0,9,4,9,9v32c0,5-4,9-9,9H248z M271,407v-14h-14v14H271z"></path> <path class="st0" d="M280,376c4.4,0,8,3.6,8,8v32c0,4.4-3.6,8-8,8h-32c-4.4,0-8-3.6-8-8v-32c0-4.4,3.6-8,8-8H280 M256,408h16v-16 h-16V408 M280,374h-32c-5.5,0-10,4.5-10,10v32c0,5.5,4.5,10,10,10h32c5.5,0,10-4.5,10-10v-32C290,378.5,285.5,374,280,374L280,374z M258,394h12v12h-12V394L258,394z"></path> </g> <g> <path class="st0" d="M168,265c-5,0-9-4-9-9v-32c0-5,4-9,9-9h32c5,0,9,4,9,9v32c0,5-4,9-9,9H168z M191,247v-14h-14v14H191z"></path> <path class="st0" d="M200,216c4.4,0,8,3.6,8,8v32c0,4.4-3.6,8-8,8h-32c-4.4,0-8-3.6-8-8v-32c0-4.4,3.6-8,8-8H200 M176,248h16v-16 h-16V248 M200,214h-32c-5.5,0-10,4.5-10,10v32c0,5.5,4.5,10,10,10h32c5.5,0,10-4.5,10-10v-32C210,218.5,205.5,214,200,214L200,214z M178,234h12v12h-12V234L178,234z"></path> </g> <g> <path class="st0" d="M88,345c-5,0-9-4-9-9v-32c0-5,4-9,9-9h32c5,0,9,4,9,9v32c0,5-4,9-9,9H88z M111,327v-14H97v14H111z"></path> <path class="st0" d="M120,296c4.4,0,8,3.6,8,8v32c0,4.4-3.6,8-8,8H88c-4.4,0-8-3.6-8-8v-32c0-4.4,3.6-8,8-8H120 M96,328h16v-16H96 V328 M120,294H88c-5.5,0-10,4.5-10,10v32c0,5.5,4.5,10,10,10h32c5.5,0,10-4.5,10-10v-32C130,298.5,125.5,294,120,294L120,294z M98,314h12v12H98V314L98,314z"></path> </g> <g> <path class="st0" d="M168,345c-5,0-9-4-9-9v-32c0-5,4-9,9-9h32c5,0,9,4,9,9v32c0,5-4,9-9,9H168z M191,327v-14h-14v14H191z"></path> <path class="st0" d="M200,296c4.4,0,8,3.6,8,8v32c0,4.4-3.6,8-8,8h-32c-4.4,0-8-3.6-8-8v-32c0-4.4,3.6-8,8-8H200 M176,328h16v-16 h-16V328 M200,294h-32c-5.5,0-10,4.5-10,10v32c0,5.5,4.5,10,10,10h32c5.5,0,10-4.5,10-10v-32C210,298.5,205.5,294,200,294L200,294z M178,314h12v12h-12V314L178,314z"></path> </g> <g> <path class="st0" d="M88,425c-5,0-9-4-9-9v-32c0-5,4-9,9-9h32c5,0,9,4,9,9v32c0,5-4,9-9,9H88z M111,407v-14H97v14H111z"></path> <path class="st0" d="M120,376c4.4,0,8,3.6,8,8v32c0,4.4-3.6,8-8,8H88c-4.4,0-8-3.6-8-8v-32c0-4.4,3.6-8,8-8H120 M96,408h16v-16H96 V408 M120,374H88c-5.5,0-10,4.5-10,10v32c0,5.5,4.5,10,10,10h32c5.5,0,10-4.5,10-10v-32C130,378.5,125.5,374,120,374L120,374z M98,394h12v12H98V394L98,394z"></path> </g> <g> <path class="st0" d="M168,425c-5,0-9-4-9-9v-32c0-5,4-9,9-9h32c5,0,9,4,9,9v32c0,5-4,9-9,9H168z M191,407v-14h-14v14H191z"></path> <path class="st0" d="M200,376c4.4,0,8,3.6,8,8v32c0,4.4-3.6,8-8,8h-32c-4.4,0-8-3.6-8-8v-32c0-4.4,3.6-8,8-8H200 M176,408h16v-16 h-16V408 M200,374h-32c-5.5,0-10,4.5-10,10v32c0,5.5,4.5,10,10,10h32c5.5,0,10-4.5,10-10v-32C210,378.5,205.5,374,200,374L200,374z M178,394h12v12h-12V394L178,394z"></path> </g> <g> <path class="st0" d="M264.5,345c-0.5,0-1,0-1.5-0.1c-4.9-0.8-8.2-5.4-7.4-10.3l6.8-41.8l-28.8-29.5c-1.3-1.3-2.1-2.9-2.5-4.9 c-0.4-2.4,0.2-4.8,1.6-6.7c1.4-1.9,3.5-3.2,5.9-3.6l39.5-6l17.8-37.8c1-1.9,2.5-3.4,4.3-4.3c1.2-0.6,2.5-0.9,3.8-0.9 c3.5,0,6.6,2,8.1,5.1l17.8,37.8l39.5,6c1.8,0.2,3.5,1,5,2.5c3.6,3.6,3.6,9.1,0.1,12.7l-28.8,29.5l6.8,41.8c0.3,2,0,4.1-1,5.9 c-1.6,2.8-4.7,4.6-7.9,4.6c0,0,0,0,0,0c-1.5,0-3-0.4-4.3-1.1L304,324.4l-35.2,19.4C267.6,344.6,266.1,345,264.5,345z M278.4,283.3 c2,2,2.9,4.9,2.5,7.8l-4.6,28.1l23.4-12.9c1.3-0.7,2.8-1.1,4.3-1.1s3,0.4,4.3,1.1l23.3,12.9l-4.6-28c-0.5-2.9,0.5-5.8,2.5-7.8 l19.6-20.4l-26.9-4.1c-2.9-0.5-5.5-2.4-6.8-5.1l-11.6-24.8l-11.6,24.8c-1.2,2.7-3.8,4.6-6.8,5.1l-26.9,4.1L278.4,283.3z"></path> <path class="st0" d="M304,200c3,0,5.8,1.7,7.2,4.6l18,38.3l40,6.1c1.7,0.2,3.2,1,4.5,2.2c3.1,3.1,3.2,8.1,0.1,11.3l-29.2,29.9 l6.9,42.3c0.3,1.8,0,3.6-0.9,5.2c-1.5,2.6-4.2,4.1-7,4.1c-1.3,0-2.6-0.3-3.9-1L304,323.3L268.3,343c-1.1,0.7-2.4,1-3.8,1 c-0.4,0-0.9,0-1.3-0.1c-4.3-0.7-7.3-4.8-6.6-9.2l6.9-42.3l-29.2-29.9c-1.2-1.2-1.9-2.7-2.2-4.4c-0.7-4.4,2.3-8.4,6.7-9.1l40-6.1 l18-38.3c0.8-1.6,2.1-3,3.8-3.8C301.7,200.3,302.9,200,304,200 M275,321l25.2-13.9c1.2-0.6,2.5-1,3.9-1c1.3,0,2.6,0.3,3.8,1 L333,321l-4.9-30c-0.4-2.5,0.4-5.1,2.2-6.9l20.9-21.8l-28.8-4.4c-2.6-0.4-4.9-2.1-6-4.5l-12.5-26.7l-12.5,26.7 c-1.1,2.4-3.4,4.1-6,4.5l-28.8,4.4l21.1,21.7c1.8,1.8,2.6,4.4,2.2,6.9L275,321 M304,198c-1.5,0-2.9,0.3-4.3,1 c-2,0.9-3.7,2.6-4.7,4.7l-17.6,37.4l-38.9,5.9c-5.6,0.9-9.2,5.9-8.4,11.4c0.4,2.2,1.3,4.1,2.8,5.5l28.5,29.2l-6.7,41.3 c-0.9,5.5,2.8,10.6,8.3,11.5c0.5,0.1,1.1,0.1,1.7,0.1c1.7,0,3.3-0.4,4.8-1.3l34.7-19.2l34.7,19.2c1.5,0.8,3.2,1.2,4.8,1.2 c3.6,0,7-1.9,8.8-5.1c1.1-2,1.5-4.3,1.1-6.5l-6.7-41.3l28.5-29.2c3.9-4,3.8-10.2-0.1-14.1l0,0l0,0c-1.7-1.6-3.6-2.5-5.6-2.7 l-38.9-5.9L313,203.7C311.3,200.2,307.9,198,304,198L304,198z M260.7,263.7l25-3.8c3.3-0.5,6.2-2.7,7.5-5.6l10.7-22.8l10.7,22.8 c1.4,3,4.2,5.1,7.5,5.6l25,3.8l-18.2,19c-2.2,2.2-3.2,5.4-2.7,8.6l4.2,25.9l-21.5-11.9c-1.5-0.8-3.1-1.2-4.8-1.2 c-1.7,0-3.3,0.4-4.8,1.2l-21.6,11.9l4.2-26c0.5-3.2-0.5-6.4-2.8-8.6L260.7,263.7L260.7,263.7z"></path> </g> <g> <path class="st0" d="M408,345c-5,0-9-4-9-9v-32c0-5,4-9,9-9h32c5,0,9,4,9,9v32c0,5-4,9-9,9H408z M431,327v-14h-14v14H431z"></path> <path class="st0" d="M440,296c4.4,0,8,3.6,8,8v32c0,4.4-3.6,8-8,8h-32c-4.4,0-8-3.6-8-8v-32c0-4.4,3.6-8,8-8H440 M416,328h16v-16 h-16V328 M440,294h-32c-5.5,0-10,4.5-10,10v32c0,5.5,4.5,10,10,10h32c5.5,0,10-4.5,10-10v-32C450,298.5,445.5,294,440,294L440,294z M418,314h12v12h-12V314L418,314z"></path> </g> <g> <path class="st0" d="M408,425c-5,0-9-4-9-9v-32c0-5,4-9,9-9h32c5,0,9,4,9,9v32c0,5-4,9-9,9H408z M431,407v-14h-14v14H431z"></path> <path class="st0" d="M440,376c4.4,0,8,3.6,8,8v32c0,4.4-3.6,8-8,8h-32c-4.4,0-8-3.6-8-8v-32c0-4.4,3.6-8,8-8H440 M416,408h16v-16 h-16V408 M440,374h-32c-5.5,0-10,4.5-10,10v32c0,5.5,4.5,10,10,10h32c5.5,0,10-4.5,10-10v-32C450,378.5,445.5,374,440,374L440,374z M418,394h12v12h-12V394L418,394z"></path> </g> <g> <path class="st0" d="M328,425c-5,0-9-4-9-9v-32c0-5,4-9,9-9h32c5,0,9,4,9,9v32c0,5-4,9-9,9H328z M351,407v-14h-14v14H351z"></path> <path class="st0" d="M360,376c4.4,0,8,3.6,8,8v32c0,4.4-3.6,8-8,8h-32c-4.4,0-8-3.6-8-8v-32c0-4.4,3.6-8,8-8H360 M336,408h16v-16 h-16V408 M360,374h-32c-5.5,0-10,4.5-10,10v32c0,5.5,4.5,10,10,10h32c5.5,0,10-4.5,10-10v-32C370,378.5,365.5,374,360,374L360,374z M338,394h12v12h-12V394L338,394z"></path> </g> </svg> 