<?xml version="1.0" encoding="UTF-8"?> <!-- Generator: Adobe Illustrator 25.0.0, SVG Export Plug-In . SVG Version: 6.00 Build 0) --> <svg xmlns="http://www.w3.org/2000/svg" xmlns:xlink="http://www.w3.org/1999/xlink" version="1.1" id="Layer_1" x="0px" y="0px" viewBox="0 0 512 512" style="enable-background:new 0 0 512 512;" xml:space="preserve"> <style type="text/css"> .st0{fill:#68A437;} .st1{fill:#68A437;stroke:#68A437;stroke-width:2;stroke-miterlimit:10;} </style> <path class="st0" d="M421.5,285.9c4.2,0,7.6-3.4,7.6-7.6v-0.7c0-4.2-3.4-7.6-7.6-7.6s-7.6,3.4-7.6,7.6v0.7 C413.9,282.5,417.3,285.9,421.5,285.9z"></path> <path class="st1" d="M67.8,503.6c-1.4,0-2.9,0-4.2-0.2c-10.4-1.1-20-6.3-26.7-14.6c-6.7-8.3-9.7-18.7-8.6-29.2l7.6-71 c1.3-11.7,7.5-22.1,17.3-28.7c4.2-36.8,14.8-73.7,31.5-109.4c16.7-35.4,38.9-69.2,66.2-100.3c1.6-1.8,4-2.8,6.3-2.8c2,0,4,0.8,5.4,2 c3.5,3.1,3.8,8.3,0.8,11.7C113,218.4,80.1,286.7,70.5,353.4c1.5-0.2,3.2-0.3,4.6-0.3s2.9,0.1,4.3,0.3c0.4,0,0.7,0.1,1,0.1 c2.2-10.7,7.9-20.6,16.1-27.8c13.1-59.8,46.2-118.1,95.7-168.6l0.5-0.5c4.7-4.9,9.3-9.3,13.7-13.3c55.3-51.4,123.2-88,191.1-102.9 c2.6-1.2,3.9-5.8,2.6-10c-0.9-3-3-6.5-8.7-6.5c-1.3,0-2.7,0.2-4.2,0.5h-0.1H387C316.3,39.9,245.8,79,188.5,134.6l-2.3,2.3 c-1.5,1.5-3.7,2.4-5.9,2.4s-4.2-0.9-5.9-2.4c-1.6-1.6-2.5-3.7-2.4-6c0-2.2,0.9-4.2,2.5-5.8c0.5-0.4,0.9-0.8,1.3-1.2 c0.4-0.4,0.9-0.9,1.3-1.3c59.4-57.4,132.8-98,206.5-114.3c2.7-0.7,5.4-1,8-1c14.4,0,22.2,9.9,24.5,18.5c2.9,10.6-0.4,21.8-8,27.4 v179.9c15,2.1,28.9,10,40.2,22.9c11.3,12.8,18.9,29.5,22.1,48.1c15.8,12.6,24.8,35.8,25.2,65.8c0,6.8-0.8,14.3-6.3,18.4 c-2.5,1.9-5.3,2.8-8.8,2.8c-3.8,0-7.6-1-12.4-2.2l-10-2.8c-3.3,7.5-7.3,15.4-12.4,24.1l-0.6,1c-6.8,11.5-6.5,11.9-4.8,13.9 l22.9,27.6c3.3,4.1,4,9.2,1.7,13.9c-2.4,5.1-8.2,9.1-13.3,9.1h-12.4l-39.3,0.1l-39.3-0.1h-12.4c-5.1,0-10.9-4-13.3-9.1 c-2.1-4.7-1.4-9.8,1.8-13.9l22.9-27.6c1.6-2,2-2.4-4.7-13.9l-0.7-1.1c-4.9-8.2-9.1-16.3-12.5-24l-9.9,2.8l-0.6,0.2 c-4.2,1.2-8,2.2-11.7,2.2c-3.5,0-6.3-0.9-8.8-2.8c-5.5-4.2-6.3-11.7-6.3-18.4c0.1-30,9-53.5,24.9-66c6.5-38.1,31.4-66.5,62.3-71 V71.4c-44.8,48.5-123.9,90.7-185.5,98.8c-2.6,44-13.4,105.4-49.3,149.8c5.2,3.1,9.8,7,13.6,11.8c8.6,10.6,12.5,23.9,11,37.5 c-1,9.8-4.8,19.1-11.2,26.8l9.8,11c4.9-3,10.4-4.5,15.9-4.5c1.1,0,2.2,0.1,3.3,0.2c8.1,0.9,15.4,4.8,20.6,11.3 c5.1,6.4,7.5,14.4,6.7,22.5c-0.9,8.1-4.9,15.4-11.3,20.6c-5.7,4.4-12.3,6.8-19.2,6.8c-1.3,0-2.3-0.1-3.4-0.2 c-8.1-0.9-15.4-4.9-20.7-11.3c-5.2-6.4-7.5-14.4-6.7-22.5c0.5-4,1.5-7.5,3.3-10.8L157.6,407c-8.2,5.2-17.7,8-27.3,8 c-1.7,0-3.6-0.1-5.4-0.3c-4.1-0.5-8.1-1.4-11.9-2.7l-6,56.1c-1.1,10.6-6.3,20.2-14.6,26.8C85.5,500.5,76.9,503.6,67.8,503.6z M75.5,369.8c-3.7,0-7.2,0.9-10.6,2.5c-0.1,0-0.1,0.1-0.1,0.1c-0.1,0.1-0.2,0.1-0.4,0.2c-6.8,3.7-11.3,10.3-12.2,18l-7.6,71 c-0.8,6.1,1.1,12.1,5,17c4,4.8,9.5,7.9,15.5,8.5c0.9,0.1,1.6,0.1,2.5,0.1c5.3,0,10.4-1.8,14.6-5.1c4.8-4,7.9-9.5,8.5-15.5l6.8-63.4 c-2.8-2.4-4.9-4.6-6.8-7c-6-7.5-9.8-16.4-10.9-25.9c-0.6-0.1-1.4-0.3-2-0.3C77.1,369.8,76.3,369.8,75.5,369.8z M360.6,459.6 l39.3,0.1l47-0.1l-19.5-23.5c-9.4-11.2-3.6-21.1,3.2-32.6l0.2-0.3l0.6-1c16.5-28.2,24.2-53.3,24.1-79.2c0-1.3,0-2.4,0-3.7 c-12.1,3.2-23.9,5.3-35.3,6.4c-0.6,0.1-2.9,0.3-3.5,0.3h-0.4c-4.3,0-8-3.5-8.2-7.7c-0.2-2.2,0.6-4.3,2-6c1.4-1.6,3.5-2.6,5.7-2.7 c0.2,0,0.8-0.1,1.4-0.1c0.6-0.1,1.3-0.1,1.4-0.1c11.3-1.1,23-3.3,34.8-6.5c-6.8-31.8-28.7-53.9-53.5-53.9c-24.9,0-46.8,22.1-53.5,54 c12.2,3.5,24.8,5.8,37.8,6.8c4.4,0.3,7.9,4.3,7.5,8.9c-0.3,4.2-4,7.6-8.2,7.6h-0.6c-13.4-1.2-26.3-3.4-38.4-6.7c0,0.4,0,0.8,0,1.2 c0,0.8,0,1.5,0,2.4c0,25.8,7.7,51,24.2,79.1l0.7,1.1c6.8,11.6,12.6,21.5,3.2,32.8l-19.4,23.5L360.6,459.6L360.6,459.6L360.6,459.6z M196.1,419.2c-7.2,0-13.3,5.4-14.1,12.6c-0.5,3.8,0.7,7.4,3.2,10.3c2.4,2.9,5.8,4.8,9.5,5.2c0.5,0,1,0.1,1.4,0.1 c3.3,0,6.4-1.1,9-3.2c2.9-2.3,4.8-5.8,5.1-9.5c0.4-3.8-0.7-7.4-3.1-10.4c-2.4-2.9-5.7-4.7-9.5-5.1 C197,419.2,196.5,419.2,196.1,419.2z M111.2,392.7c4.7,3.2,10.1,5.1,15.6,5.7c1.3,0.1,2.5,0.2,3.7,0.2c5.6,0,11.2-1.4,16.1-4.1 l-22.3-25.1c-1.4-1.6-2.2-3.8-2.1-6s1.1-4.2,2.7-5.7c1.5-1.4,3.5-2.1,5.5-2.1c2.3,0,4.6,1,6.2,2.8l22.4,25.1 c3.4-4.8,5.4-10.3,6-15.9c1-9.2-1.7-18.2-7.5-25.4s-14.1-11.8-23.4-12.6h-0.2c-1.3-0.1-2.4-0.2-3.6-0.2c-17.8,0-32.5,13.3-34.4,30.9 c-1,9.3,1.7,18.3,7.5,25.5c2.1,2.5,4.6,4.8,7.2,6.7h0.1l0.1,0.1C111,392.6,111.1,392.6,111.2,392.7z M472.4,373.3 c3.1,1,5,1.4,6.2,1.5c0.1-0.9,0.3-2.3,0.3-4.4c0-8.7-1-24.6-7-37.9c-0.9,12.8-3.4,25.5-7.7,38.5L472.4,373.3z M328,332.5 c-6.1,13.2-7,29.2-7,37.9c0,1.8,0.1,3.4,0.2,4.4c1.8-0.4,4.3-1,6.3-1.5l8.3-2.2C331.3,358.4,328.8,345.6,328,332.5z M188.4,185.7 c-34.7,39.7-59.6,84.3-72,129.1c4.7-1.4,9.5-2,14.3-2c1.7,0,3.6,0.1,5.4,0.3c1.6,0.2,3.1,0.4,4.5,0.7 C166.6,283.9,182.7,240.8,188.4,185.7z M377,62.8c-55.5,16.5-108.5,46.7-153.7,87.5C276.5,137.5,339.9,101.4,377,62.8z"></path> </svg> 