<?xml version="1.0" encoding="UTF-8"?> <!-- Generator: Adobe Illustrator 25.0.0, SVG Export Plug-In . SVG Version: 6.00 Build 0) --> <svg xmlns="http://www.w3.org/2000/svg" xmlns:xlink="http://www.w3.org/1999/xlink" version="1.1" id="Capa_1" x="0px" y="0px" viewBox="0 0 512 512" style="enable-background:new 0 0 512 512;" xml:space="preserve"> <style type="text/css"> .st0{fill:#FFFFFF;} </style> <path class="st0" d="M471.3,40.7c-1.8-1.8-4.5-2.9-7.1-2.9c-2.3,0-57.5,0.2-127.8,14.1c-24.3,4.8-47.9,11-70.3,18.3l-0.1,0.1 l-0.7,0.2c-13.6,4.4-27.4,9.5-40.8,15.3c-17.1,7.4-31.6,14.7-44.3,22.3l-0.1,0.1l-0.1,0.1c-0.3,0.1-0.4,0.2-0.4,0.2l-0.3,0.3 L179,109c-21.8,12.9-41.1,27.6-57.2,43.6C90,184.4,72.5,226.5,72.5,271.4c0,20.2,3.5,39.8,10.5,58.5c6.9,18.6,17,35.8,30.1,51 l1.8,2.1l-2,2l-72.2,72.2c-3.8,3.8-3.8,10.2,0,14.1c1.9,1.9,4.3,2.9,7.1,2.9s5.1-1,7.1-2.9l72.2-72.2l2-2l2.1,1.8 c15.2,13.1,32.4,23.2,51,30.1c18.7,6.9,38.4,10.4,58.5,10.4c44.9,0,87-17.5,118.8-49.2c16.1-16.1,30.7-35.3,43.6-57.1 c0.2-0.4,0.4-0.7,0.6-0.9c0-0.1,0.1-0.1,0.1-0.2l0,0l0.1-0.1c7.8-13.2,15.1-27.7,22.3-44.4c5.6-13,10.7-26.7,15.2-40.7 c0.1-0.5,0.3-0.9,0.5-1.2c7.1-22.1,13.2-45.7,18.2-70c14-70.3,14.1-125.5,14.1-127.8C474.2,45.2,473.1,42.6,471.3,40.7z M194.6,296.2V124.6v-1.7l1.5-0.9c17.5-9.9,36.6-18.6,58.4-26.6l4-1.5v4.3v140v1.2l-0.9,0.9l-58,58l-5.1,5.1v-7.2H194.6z M131.1,366.6l-2.3,2.3l-2.1-2.5c-11.1-13.3-19.7-28.2-25.5-44.3c-5.9-16.2-8.9-33.3-8.9-50.7c0-39.6,15.4-76.8,43.4-104.8 c10.1-10.1,21.6-19.7,34.1-28.4l4.7-3.3v5.8V322v1.2l-0.9,0.9L131.1,366.6z M373.7,342.1c-7.9,11.5-17.4,23-28.3,34.1 c-28,28-65.2,43.4-104.8,43.4c-35.3,0-68.2-11.9-95-34.4l-2.5-2.1l2.3-2.3l42.5-42.5l0.9-0.9h1.2h181.3h5.7L373.7,342.1z M416.7,257.4c-8.2,22.1-17,41.3-26.8,58.4l-0.9,1.5h-1.7H215.9h-7.2l5.1-5.1l58-58l0.9-0.9h1.2h140h4.3L416.7,257.4z M453.9,61.2 c-0.6,16.2-3.2,59.4-13.5,111c-4,20.3-9,40.2-14.9,59.3l-0.6,2.1h-2.2H299.9h-7.2l5.1-5.1l75.4-75.4c3.8-3.8,3.8-10.2,0-14.1 c-1.8-1.8-4.3-2.9-7-2.9s-5.2,1-7.1,2.9l-75.4,75.4l-5.1,5.1v-7.2V89.5v-2.2l2.1-0.7c18-5.8,37.3-10.7,59.1-15.1 c51.2-10.2,94.7-12.8,111-13.5l3.2,0L453.9,61.2z"></path> </svg> 