<?xml version="1.0" encoding="UTF-8"?> <!-- Generator: Adobe Illustrator 24.1.0, SVG Export Plug-In . SVG Version: 6.00 Build 0) --> <svg xmlns="http://www.w3.org/2000/svg" xmlns:xlink="http://www.w3.org/1999/xlink" version="1.1" id="Layer_1" x="0px" y="0px" viewBox="0 0 512 512" style="enable-background:new 0 0 512 512;" xml:space="preserve"> <style type="text/css"> .st0{fill:#68A437;} </style> <path class="st0" d="M502,262.8h-25.2c-3.1,0-6,1.4-7.9,3.9l-15.2,19.5c-3.4,4.4-2.6,10.6,1.7,14c1.8,1.4,4,2.1,6.1,2.1 c3,0,5.9-1.3,7.9-3.9l12.2-15.6H502c5.5,0,10-4.5,10-10S507.5,262.8,502,262.8z"></path> <path class="st0" d="M420.5,344.9c-4.4-3.4-10.6-2.6-14,1.7l-14.1,18h-43.8l-35-119.8c10.2-3.9,17.5-13.8,17.5-25.3 c0-14.9-12.1-27.1-27-27.1h-5.7l-7.2-24.8c-1.5-5.3-7.1-8.3-12.4-6.8c-5.3,1.6-8.3,7.1-6.8,12.4l5.6,19.2h-5.3l-37.1-35.5 c0.8-0.5,1.6-1,2.3-1.6c10.6-7.5,17.6-18.6,19.8-31.4s-0.7-25.6-8.2-36.2c-7.5-10.6-18.6-17.6-31.4-19.8 c-26.4-4.5-51.5,13.3-56,39.6c-2.7,15.9,2.7,31.3,13.2,42.1c-2.8,1.3-5.4,2.8-7.8,4.6c-4.7-9.8-13.8-17.3-25.1-19.3 c-9-1.6-18.1,0.4-25.5,5.7c-7.7,5.4-12.7,13.5-14.3,22.9c-1,6-0.4,11.9,1.4,17.3c-0.5,0.2-1,0.5-1.4,0.8c-2.2,1.5-3.7,3.9-4.1,6.5 l-14.1,80.7c-2.5,14.5,6.8,28.4,20.9,30.9l16.8,3c1.5,0.3,3,0.4,4.5,0.4c1.1,0,2.2-0.1,3.3-0.2l-3.1,47.9l-24.3,50.1 c-2.3,4.8-3.5,9.8-3.5,15.1c0,5.1,1.2,10.1,3.3,14.6H90.3c-1.9,0-3.8,0.5-5.4,1.6L4.6,483.4c-4.7,3-6,9.1-3,13.8 c1.9,3,5.1,4.6,8.4,4.6c1.8,0,3.7-0.5,5.4-1.6l77.8-49.6h38.1c0.6,0,1.3,0.1,1.9,0.1c0.5,0,1.1,0,1.6-0.1h106.6c2.6,0,5-1,6.9-2.8 l66.5-63.2h26.2h0.1h0h56.1c3.1,0,6-1.4,7.9-3.9l17.1-21.9C425.7,354.6,424.9,348.3,420.5,344.9z M170.4,308.1 c-3.9-0.7-8.2-1-11.7-2.8c-6.2-3.3-9.4-10.2-8.2-17.1c0.3-1.9,0.6-3.8,1-5.7c29-1.4,49.2-9.5,62.8-18.2l-2.3,13.7 c-0.8,4.4,1.5,8.8,5.5,10.7L253,306l41.4,52.2c5,6.3,4,15.6-2.4,20.6c-6.3,5-15.6,4-20.6-2.4l-35.8-45.1c-0.9-1.2-2.1-2.1-3.5-2.8 L202,313.9c-0.8-0.4-1.7-0.7-2.7-0.9L170.4,308.1z M310,345.7l-42.8-54c-0.7-0.9-1.5-1.6-2.5-2.2c-0.3-0.2-0.7-0.4-1-0.6L232.8,274 l4.7-27.4h55.8l34.5,118.1h-10.4C316.9,358,314.5,351.4,310,345.7z M268.2,212.5h22.6c0,0,0,0,0.1,0c0,0,0,0,0,0h13.1 c3.9,0,7,3.2,7,7.1s-3.2,7.1-7,7.1h-3c0,0,0,0,0,0h-68.2l-20.2-17.4c-4.2-3.6-10.5-3.1-14.1,1.1s-3.1,10.5,1.1,14.1l15.8,13.6 c-7.9,8.2-26,21.8-60.5,24.3l3.7-21.5l6.9-40.6c0,0,0-0.1,0-0.1l2.1-12.1c2-11.7,11.9-23.9,33.9-23.9c0.5,0,1,0,1.5,0 c0.1,0,0.2,0,0.2,0c6.9,0,13,2.4,17.4,6.7c0.1,0.1,0.3,0.2,0.4,0.4l40.4,38.5C263.2,211.6,265.7,212.5,268.2,212.5z M181.3,111.2 c2.4-13.9,14.4-23.7,28.1-23.7c1.6,0,3.2,0.1,4.8,0.4c7.5,1.3,14.1,5.4,18.4,11.6s6.1,13.8,4.8,21.3c-2.4,13.9-14.4,23.7-28.1,23.7 c-1.6,0-3.2-0.1-4.8-0.4C189.1,141.4,178.7,126.6,181.3,111.2z M121.8,166.9c0.7-4,2.8-7.5,6.1-9.8c2.4-1.7,5.2-2.6,8-2.6 c0.8,0,1.6,0.1,2.5,0.2c7.9,1.4,13.2,9.3,11.9,17.5c-0.7,4-2.8,7.5-6.1,9.8c-3.1,2.2-6.8,3-10.5,2.3 C125.8,183,120.4,175.2,121.8,166.9z M125.2,283.2l-16.8-3c-3.2-0.6-5.3-4.1-4.7-7.8l12.3-70.8l28.1,5.1l-4.8,27.8l-7.6,44.2 C130.8,281.7,128,283.7,125.2,283.2z M126.9,429.2c-5.1-2.5-8.3-7.5-8.3-13.2c0-2.2,0.5-4.4,1.5-6.4l25.1-51.8 c0.6-1.2,0.9-2.4,1-3.7l2.1-31.7c7.5,4.3,16.5,5,25,6.5c1.6,0.3,3.2,0.5,4.8,0.8l-2.2,32.4l-29.2,60.3c-2.4,4.9-7.1,7.8-12.1,8.2 h-2.3C130.3,430.5,128.6,430.1,126.9,429.2z M237.4,430.7h-72.7l29.8-61.5c0.2-0.4,0.4-0.9,0.5-1.3c0.2-0.8,0.4-1.5,0.5-2.4 l2.2-31.4l23.7,11.4l34.3,43.3c4,5,9,8.6,14.5,10.7L237.4,430.7z"></path> <path class="st0" d="M446.2,317.9c-1.6-3.9-5.7-6.5-10-6.1c-4.2,0.3-7.8,3.2-8.9,7.2c-1.1,4,0.4,8.4,3.8,10.9 c3.3,2.4,8,2.5,11.4,0.2C446.5,327.4,448.1,322.2,446.2,317.9z"></path> </svg> 