<?xml version="1.0" encoding="UTF-8"?> <!-- Generator: Adobe Illustrator 25.0.0, SVG Export Plug-In . SVG Version: 6.00 Build 0) --> <svg xmlns="http://www.w3.org/2000/svg" xmlns:xlink="http://www.w3.org/1999/xlink" version="1.1" id="Layer_1" x="0px" y="0px" viewBox="0 0 512 512" style="enable-background:new 0 0 512 512;" xml:space="preserve"> <style type="text/css"> .st0{fill:#68A437;} </style> <path class="st0" d="M495.4,405.8c4.2,0,7.9-2.3,9.7-6.1c2.4-5.3,0.1-11.7-5.2-14.2l0,0l0,0c-0.7-0.3-1.4-0.6-2.1-1 c-0.5-0.2-0.9-0.4-1.4-0.6l-5.4-2.5l2.4-5.4c3-6.7,5-13.4,6-20l0,0l0,0c4-24.7-3.7-51.4-20.6-71.4c-14.8-17.4-35.2-27.4-55.8-27.4 c-5.9,0-10.7,4.8-10.7,10.7c0,21.7-17.7,39.4-39.4,39.4H139.1c-21.7,0-39.4-17.7-39.4-39.4c0-5.9-4.8-10.7-10.7-10.7 c-20.6,0-40.9,10-55.8,27.4C16.2,304.4,8.5,331,12.5,355.8c1.1,6.6,3.1,13.3,6,20.1l2.4,5.6l-5.6,2.3c-0.7,0.3-1.4,0.6-2.2,1 c-0.4,0.2-0.8,0.4-1.2,0.6c-5.3,2.6-7.5,8.9-5,14.3c1.8,3.7,5.5,6.1,9.7,6.1c1.6,0,3.1-0.3,4.6-1c10.7-5.1,22.6-7.8,34.4-7.8 c15.8,0,31.1,4.6,44.2,13.3c16.7,11.1,36.1,17,56,17s39.3-5.9,56-17c13.2-8.8,28.4-13.4,44.1-13.4c15.7,0,31,4.6,44.2,13.4 c16.7,11.1,36.1,17,56,17s39.3-5.9,56-17c13.1-8.7,28.4-13.3,44.3-13.3c11.8,0,23.6,2.7,34.2,7.7 C492.3,405.4,493.8,405.8,495.4,405.8z M478.2,352.5c-1.1,6.8-3.5,13.6-7.3,20.4l-1.9,3.4l-3.9-0.3c-2.9-0.3-5.9-0.4-8.8-0.4 c-20.1,0-39.4,5.8-56,16.9c-13.2,8.8-28.4,13.4-44.1,13.4s-31-4.6-44.1-13.4c-16.7-11.1-36.1-17-56-17s-39.3,5.9-56,17 c-13.2,8.8-28.4,13.4-44.1,13.4s-31-4.6-44.1-13.4c-16.6-11-36.1-16.9-56.4-16.9c-2.9,0-5.8,0.1-8.6,0.4l-3.9,0.3l-1.9-3.4 c-3.7-6.8-6.2-13.7-7.3-20.4c-3.1-18.5,2.9-38.7,15.8-54c6.9-8,14.8-13.7,23.6-17l6-2.3l1.9,6.1c3.7,12.3,11.4,23.3,21.7,31.1 c10.6,8,23.3,12.3,36.6,12.3H373c13.3,0,25.9-4.2,36.6-12.3c10.3-7.8,18-18.8,21.7-31.1l1.8-6.1l6,2.2c8.8,3.2,16.7,8.9,23.6,17.1 l0,0l0,0C475.5,313.8,481.3,334,478.2,352.5z"></path> <path class="st0" d="M505.2,466.6c2.4-5.4,0-11.8-5.3-14.4c-13.4-6.4-28.4-9.8-43.4-9.8c-20.2,0-39.6,5.8-56.1,16.9 c-13.2,8.8-28.4,13.4-44.1,13.4s-31-4.6-44.1-13.4c-16.7-11.1-36.1-17-56-17s-39.3,5.9-56,17c-13.2,8.8-28.4,13.4-44.1,13.4 c-15.7,0-31-4.6-44.1-13.4c-16.6-11.1-36-16.9-56.1-16.9c-15,0-30.1,3.4-43.4,9.8c-5.4,2.6-7.6,8.9-5.1,14.3 c1.8,3.7,5.5,6.1,9.7,6.1c1.6,0,3.1-0.3,4.6-1c10.6-5,22.5-7.7,34.3-7.7c15.9,0,31.2,4.6,44.2,13.4c16.7,11.1,36.1,17,56,17 s39.3-5.9,56-17c13.2-8.8,28.4-13.4,44.1-13.4c15.7,0,31,4.6,44.2,13.4c16.7,11.1,36.1,17,56,17s39.3-5.9,56-17 c13.1-8.7,28.4-13.3,44.3-13.3c11.8,0,23.6,2.7,34.2,7.7c1.5,0.7,3,1.1,4.6,1.1C499.7,472.7,503.3,470.3,505.2,466.6z"></path> <path class="st0" d="M495.3,51.3H130.7h-4.2l-1.4-4c-6.3-17.6-23-29.4-41.5-29.4H16.7C10.8,17.9,6,22.7,6,28.6v66.8 c0,5.9,4.8,10.7,10.7,10.7h66.8c18.6,0,35.3-11.8,41.5-29.4l1.4-4h4.2h364.6c5.9,0,10.7-4.8,10.7-10.7 C506,56.1,501.2,51.3,495.3,51.3z M83.5,84.7H33.4h-6v-6V45.3v-6h6h50.1c12.5,0,22.7,10.2,22.7,22.7S96,84.7,83.5,84.7z"></path> <path class="st0" d="M428.5,206.2h66.8c5.9,0,10.7-4.8,10.7-10.7v-66.8c0-5.9-4.8-10.7-10.7-10.7h-66.8c-18.6,0-35.3,11.8-41.5,29.4 l-1.4,4h-4.2H16.7c-5.9,0-10.7,4.8-10.7,10.7c0,5.9,4.8,10.7,10.7,10.7h364.6h4.2l1.4,4C393.2,194.4,409.9,206.2,428.5,206.2z M428.5,139.4h50.1h6v6v33.4v6h-6h-50.1c-12.5,0-22.7-10.2-22.7-22.7C405.8,149.6,416,139.4,428.5,139.4z"></path> </svg> 