<?xml version="1.0" encoding="UTF-8"?> <!-- Generator: Adobe Illustrator 24.1.0, SVG Export Plug-In . SVG Version: 6.00 Build 0) --> <svg xmlns="http://www.w3.org/2000/svg" xmlns:xlink="http://www.w3.org/1999/xlink" version="1.1" id="Layer_1" x="0px" y="0px" viewBox="0 0 512 512" style="enable-background:new 0 0 512 512;" xml:space="preserve"> <style type="text/css"> .st0{fill:#68A437;} </style> <path class="st0" d="M482,206h-11.2L456.2,88.7c-2.1-16.8-9.5-32.3-20.8-43.6C422.9,32.6,407,26,389.4,26H301c-5.5,0-10,4.5-10,10 s4.5,10,10,10h5v30H206V46h5c5.5,0,10-4.5,10-10s-4.5-10-10-10h-88.4c-17.6,0-33.4,6.6-45.9,19.1C65.3,56.4,57.9,71.9,55.8,88.7 L41.2,206H30c-16.5,0-30,13.5-30,30v20c0,13.4,8.8,24.8,21,28.6l19.1,152.6C43.7,466,64.2,486,90,486h332c25.8,0,46.3-20,49.9-48.8 L491,284.6c12.2-3.8,21-15.2,21-28.6v-20C512,219.5,498.5,206,482,206z M326,46h63.4c12.1,0,23.1,4.6,31.8,13.2 c8.2,8.2,13.5,19.5,15.1,32L450.7,206h-30.2L406.6,94.8c-0.7-5.8-3-10.8-6.5-14.3c-2.9-2.9-6.6-4.4-10.6-4.4H326V46z M124.5,226H180 l-27.7,27.7L124.5,226z M166.4,267.9l37.7-37.7l37.7,37.7l-37.7,37.7L166.4,267.9z M228.3,226h55.5L256,253.7L228.3,226z M256,282 l37.7,37.7l-30.7,30.7c-3.9,3.9-10.2,3.9-14.1,0l-30.7-30.7L256,282z M307.9,305.6l-37.7-37.7l37.7-37.7l37.7,37.7L307.9,305.6z M359.8,253.7L332,226h55.5L359.8,253.7z M111.7,206l13.6-108.7c0.1-0.5,0.2-0.9,0.2-1.3h260.9c0.1,0.4,0.2,0.8,0.2,1.3L400.3,206 H111.7z M75.7,91.2c1.6-12.4,6.9-23.8,15.1-32c8.7-8.7,19.6-13.2,31.8-13.2H186v30h-63.4c-4,0-7.7,1.6-10.6,4.4 c-3.5,3.5-5.8,8.6-6.5,14.3L91.5,206H61.3L75.7,91.2z M20,236c0-5.5,4.5-10,10-10h20h0h0h46.2l40,40H30c-5.5,0-10-4.5-10-10V236z M452.1,434.8c-1.9,15-12.1,31.2-30.1,31.2H90c-18,0-28.2-16.2-30.1-31.2L41.3,286h114.9l78.6,78.6c5.9,5.9,13.5,8.8,21.2,8.8 s15.4-2.9,21.2-8.8l37.7-37.7l0,0c0,0,0,0,0,0l40.9-40.8h114.9L452.1,434.8z M492,256c0,5.5-4.5,10-10,10H375.8l40-40H462h0h0h20 c5.5,0,10,4.5,10,10V256z"></path> <path class="st0" d="M256,46c5.5,0,10-4.5,10-10s-4.5-10-10-10h0c-5.5,0-10,4.5-10,10S250.5,46,256,46z"></path> </svg> 