<?xml version="1.0" encoding="UTF-8"?> <!-- Generator: Adobe Illustrator 24.1.0, SVG Export Plug-In . SVG Version: 6.00 Build 0) --> <svg xmlns="http://www.w3.org/2000/svg" xmlns:xlink="http://www.w3.org/1999/xlink" version="1.1" id="Layer_1" x="0px" y="0px" viewBox="0 0 512 512" style="enable-background:new 0 0 512 512;" xml:space="preserve"> <style type="text/css"> .st0{fill:#68A437;} </style> <path class="st0" d="M372,342c0,5.5-4.5,10-10,10s-10-4.5-10-10s4.5-10,10-10S372,336.5,372,342z"></path> <path class="st0" d="M502,492h-20c-5.5,0-10-4.5-10-10c0-9.6,0-300.1,0-310h10c3.8,0,7.3-2.2,9-5.6s1.2-7.6-1.1-10.6l-120-152 c-4-5.1-11.7-5.1-15.7,0l-120,152c-2.4,3-2.8,7.1-1.1,10.6c1.7,3.4,5.2,5.6,9,5.6h10v101.4c-77.2,1.2-97.5,33.8-120.9,71.1 l-51.7,82.8c-1.8,3-5,4.7-8.5,4.7H42c-5.5,0-10,4.5-10,10v60c0,5.5,4.5,10,10,10h26.8c24.3,0,46.5-12.3,59.4-32.9l61.2-97.9 c17.6-28.1,46.4-29.9,62.7-29.6V482c0,5.5-4.5,10-10,10h-20c-5.5,0-10,4.5-10,10s4.5,10,10,10h20c16.5,0,30-13.5,30-30V352h20v150 c0,5.5,4.5,10,10,10s10-4.5,10-10v-30h100v30c0,5.5,4.5,10,10,10s10-4.5,10-10V352h20v130c0,16.5,13.5,30,30,30h20 c5.5,0,10-4.5,10-10S507.5,492,502,492z M362,26.1L461.4,152H262.6L362,26.1z M172.3,370.6l-61.2,97.9 c-9.2,14.7-25.1,23.5-42.4,23.5H52v-40h18.9c10.4,0,19.9-5.3,25.4-14.1l51.7-82.8c22.6-36.2,38-60.7,103.9-61.8v38.3 C232.6,331.2,195.4,333.7,172.3,370.6z M312,452v-40h100v40H312z M412,392H312v-40h5c5.5,0,10-4.5,10-10s-4.5-10-10-10h-45V172h180 v160h-45c-5.5,0-10,4.5-10,10s4.5,10,10,10h5V392z"></path> <path class="st0" d="M422,252c0-33.1-26.9-60-60-60s-60,26.9-60,60s26.9,60,60,60S422,285.1,422,252z M322,252c0-22.1,18-40,40-40 s40,17.9,40,40s-18,40-40,40S322,274,322,252z"></path> </svg> 