<?xml version="1.0" encoding="UTF-8"?> <!-- Generator: Adobe Illustrator 25.0.0, SVG Export Plug-In . SVG Version: 6.00 Build 0) --> <svg xmlns="http://www.w3.org/2000/svg" xmlns:xlink="http://www.w3.org/1999/xlink" version="1.1" id="Capa_1" x="0px" y="0px" viewBox="0 0 512 512" style="enable-background:new 0 0 512 512;" xml:space="preserve"> <style type="text/css"> .st0{fill:#68A437;stroke:#68A437;stroke-width:6;stroke-miterlimit:10;} </style> <path class="st0" d="M355.2,196.9l-31.7,31.7L280.8,186l31.7-31.7l10.1-10.1c7-7,12.1-15.7,14.9-25.4l20.9-20.9 c15-15,14.9-39.3,0-54.3c-10.8-10.8-26.8-14.1-41.1-8.7l-27.6,10.8c-9.8-1.5-20-0.2-29.3,3.4l-154.2,60.2l0,0 c-51,13.2-81.6,65.3-68.4,116.3s65.3,81.6,116.3,68.4c16.4-4.3,31.4-12.8,43.5-24.9l73.9-73.9l42.7,42.7l-73.9,73.9 c-37.3,37.3-37.3,97.6,0,134.9s97.6,37.3,134.9,0c12.1-12.1,20.6-27.1,24.9-43.5l0,0l0,0L460.3,249c3.6-9.3,4.7-19.3,3.4-29.3 l10.8-27.6c7.7-19.8-2.1-42-21.9-49.7c-14.2-5.6-30.3-2.1-41.1,8.7L390.6,172c-9.6,2.6-18.3,7.7-25.4,14.9L355.2,196.9 M322.3,47.1 c13.1-5.1,27.6,1.3,32.7,14.4c3.6,9.3,1.5,20-5.7,27.1l-9.8,9.8c-1.6-19.5-12.9-37-30.3-46.3L322.3,47.1z M188.5,259.9L188.5,259.9 c-32.2,32.1-84.2,32.1-116.4,0c-32.2-32.2-32.2-84.4,0-116.4c32.2-32.2,84.4-32.2,116.4,0C220.7,175.5,220.7,227.7,188.5,259.9z M222.5,225.9c13.4-50.9-16.8-103-67.7-116.4c-2.8-0.7-5.6-1.3-8.3-1.8l103-40.2l0,0l15.9-6.2c23.1-9,49.2,2.5,58.2,25.5 c6.5,16.7,2.5,35.5-10.1,48.1L222.5,225.9z M366.1,437.5L366.1,437.5c-32.2,32.1-84.2,32.1-116.4,0c-32.2-32.2-32.2-84.4,0-116.4 c32.2-32.2,84.4-32.2,116.4,0C398.4,353.1,398.4,405.3,366.1,437.5z M448.2,244.2l-6.2,15.9l0,0l-40.2,103 c-8.8-51.8-58.1-86.7-109.9-77.9c-2.8,0.5-5.6,1.1-8.3,1.8l89.5-89.5l1.5-1.5c17.5-17.5,46-17.5,63.5,0c6.5,6.5,11,14.9,12.4,24l0,0 C452,228.2,451.2,236.5,448.2,244.2z M462.5,187.3l-5.1,12.9c-9.3-17.2-26.7-28.6-46.3-30.3l9.8-9.8c10-9.8,25.8-9.8,35.8,0 C463.8,167.3,466.1,178,462.5,187.3z"></path> </svg> 