<?xml version="1.0" encoding="UTF-8"?> <!-- Generator: Adobe Illustrator 25.0.0, SVG Export Plug-In . SVG Version: 6.00 Build 0) --> <svg xmlns="http://www.w3.org/2000/svg" xmlns:xlink="http://www.w3.org/1999/xlink" version="1.1" id="Capa_1" x="0px" y="0px" viewBox="0 0 512 512" style="enable-background:new 0 0 512 512;" xml:space="preserve"> <style type="text/css"> .st0{fill:#68A437;} .st1{fill:#68A437;stroke:#68A437;stroke-miterlimit:10;} </style> <path class="st0" d="M248.4,95.5h23.4c4.3,0,7.8-3.5,7.8-7.8c0-4.3-3.5-7.8-7.8-7.8h-23.4c-4.3,0-7.8,3.5-7.8,7.8 C240.6,92,244.1,95.5,248.4,95.5z"></path> <path class="st1" d="M496.6,490.5h-7.8c0,0,0-338.3,0-338.7c0-2.7-1.4-5.2-3.7-6.7L266,8.9c-7.2-4-16.1-4-23.3,0 c-0.1,0.1-0.2,0.1-0.3,0.2l-218.8,136c-2.3,1.4-3.7,4-3.7,6.7c0,0.4,0,338.7,0,338.7H12c-4.3,0-7.8,3.5-7.8,7.8 c0,4.3,3.5,7.8,7.8,7.8h484.6c4.3,0,7.8-3.5,7.8-7.8C504.4,494,500.9,490.5,496.6,490.5z M176.6,68.4h155.5l119.5,74.3H57.1 L176.6,68.4z M152.7,158.3v31.3h-15.6v-31.3H152.7z M184,158.3v31.3h-15.6v-31.3H184z M215.3,158.3v31.3h-15.6v-31.3H215.3z M246.5,158.3v31.3h-15.6v-31.3H246.5z M277.8,158.3v31.3h-15.6v-31.3H277.8z M309.1,158.3v31.3h-15.6v-31.3H309.1z M340.3,158.3 v31.3h-15.6v-31.3H340.3z M371.6,158.3v31.3h-15.6v-31.3H371.6z M455.2,158.3l-51.4,31.3h-16.6v-31.3H455.2z M398.9,205.2v34.9 l-32.8-34.9H398.9z M142.5,205.2l-32.8,34.9v-34.9H142.5z M121.5,189.6h-16.6l-51.4-31.3h68V189.6z M94.1,396.7H35.5v-231l58.6,35.6 V396.7z M109.7,263l54.2-57.8h180.8l54.2,57.8v196.2H109.7V263z M414.6,412.3h58.6v46.9h-58.6V412.3z M414.6,396.7V201.3l58.6-35.6 v231H414.6z M35.5,412.3h58.6v46.9H35.5V412.3z M35.5,474.8h437.7v15.6H35.5V474.8z M250.5,22.5c2.4-1.3,5.4-1.3,7.6-0.1l48.9,30.4 H201.7L250.5,22.5z"></path> </svg> 