<?xml version="1.0" encoding="utf-8"?>
<!-- Generator: Adobe Illustrator 25.0.0, SVG Export Plug-In . SVG Version: 6.00 Build 0)  -->
<svg version="1.1" id="Layer_1" xmlns="http://www.w3.org/2000/svg" xmlns:xlink="http://www.w3.org/1999/xlink" x="0px" y="0px"
	 viewBox="0 0 206.7 89.5" style="enable-background:new 0 0 206.7 89.5;" xml:space="preserve">
<style type="text/css">
	.st0{fill:#7AC143;}
	.st1{fill:#007DC3;}
</style>
<g>
	<path class="st0" d="M132.2,10.1c-11.5-3.9-20.2,5.8-20.3,5.8C120-11.7,157.2,5,157.2,5s-16.5,30.3-44.6,11.9L132.2,10.1z"/>
	<path class="st0" d="M132.6,37.6c-4.8-2.7-9,0.8-9,0.8c9.1-14.3,27.4,1.3,27.4,1.3s-14.3,14.4-27.2-0.6L132.6,37.6z"/>
	<path class="st1" d="M128.3,30.5c-0.4-0.6-2.5-3.5-2.5-3.5s-3.6,1.8-6.1,6.1c-1.6-5.1-4-10.3-7.4-15.3l-5.2,6.1
		c0,0,7.7,8.1,10.7,22.2c-3.5-1.2-9.5-2.2-17,1l-0.1,1c0,0,9.6-3.2,17.7,1.2c1.5,9.7,0.7,21.7-5.7,35.7l0.9,2.2
		c0,0,13.8-24.7,6.8-51.6C121.9,33.8,124.6,31.2,128.3,30.5z"/>
</g>
<g>
	<path class="st1" d="M8.5,58.7C8,59.4,8,60.4,8,61.1v8.6c0,0.7-0.5,1.1-1.1,1.2c-0.5,0.1-1.1,0-1.5,0c-0.6-0.1-1.2-0.5-1.2-1.2V61
		c0-0.6,0-1.7-0.4-2.4c-0.6-0.8-1.1-1.2-2.5-1.5c-1.4-0.3-1.2-1.8,0.3-1.8c1,0,8.9,0,8.9,0c1.6,0,1.8,1.4,0.3,1.8
		C9.5,57.5,9,57.9,8.5,58.7z"/>
	<path class="st1" d="M27.8,70.9c-0.5,0.1-0.9,0.1-1.6,0c-0.7-0.1-1.2-0.6-1.2-1.2c0,0,0-1.9,0-3.9c0-1.4-1.7-2.1-3.1-2.1
		c-1.5,0-3,0.7-3,2.1c0,1.7,0,3.9,0,3.9c0,0.7-0.4,1.2-1.2,1.2c-0.5,0-1.2,0-1.2,0h-3.2l1.8-2.3V57.7l-1.8-2.3h7.4l-1.8,2.3
		c0,0.5,0,1.2,0,1.9c0,0.9,1.1,2,3,1.9s3.1-1.1,3.1-2c0-0.6,0-2.8,0-2.8c0-0.7,0.4-1.2,1.1-1.3c0.7-0.1,1,0,1.6,0
		c0.7,0.1,1.1,0.7,1.1,1.3v12.9C28.8,70.3,28.3,70.8,27.8,70.9z"/>
	<path class="st1" d="M43,70.3c-0.1,0.4-0.6,0.6-1.6,0.6c-1,0-4.3,0-7.3,0c-0.7,0-1.6-0.4-1.6-1.7c0,0,0-6.9,0-8.1v-3.4l-1.8-2.3
		h10.7c1,0,1.4,0.2,1.6,0.6c0.1,0.3,0.1,0.5,0,0.8c-0.1,0.4-0.8,0.4-1.4,0.5c-0.7,0-1.4,0-2.2,0.1c-1.4,0.1-3,0.4-3,2.3
		c0,2.2,2,2.2,2.7,2.2c0.8,0,1.7,0,2.4,0.1c0.6,0,1.2,0.2,1.2,0.6c0,0.3,0.1,0.3,0,0.7c-0.1,0.5-0.6,0.5-1.2,0.6
		c-0.7,0.1-1.8,0.1-2.4,0.1c-0.9,0-2.8,0.3-2.8,2.6c0,1.8,1.5,2.2,3,2.3C40.3,69,41,69,41.6,69c0.6,0,1.3,0.2,1.4,0.5
		C43.1,69.8,43.1,69.9,43,70.3z"/>
	<path class="st1" d="M59.5,65.1c-2.8,0.2-3.4,0.9-3.4,2.6c0,0.5,0,1.4,0,2s-0.6,1.1-1.1,1.2c-0.5,0.1-1,0.1-1.4,0
		c-0.5-0.1-1.2-0.4-1.2-1.1v-12l-1.8-2.3h3.1c0.7,0,4.6,0,5.1,0c3.2,0,5.8,1.4,5.8,4.7C64.6,63.5,62.1,64.9,59.5,65.1z M57.8,57.6
		c-1,0.1-1.7,0.6-1.7,2.6c0,2.1,0.8,2.6,1.9,2.7c1.5,0.1,2.7-1.2,2.7-2.7C60.6,58.7,59.2,57.5,57.8,57.6z"/>
	<path class="st1" d="M80.4,70.8c-0.8,0.1-1.6,0.2-2.4-0.3c-0.8-0.6-0.8-1-1.3-1.8c-0.5-0.8-1.1-1-1.7-1.1c-0.7,0-3.3-0.1-3.9,0
		c-0.7,0.1-1.3,0.3-1.9,1.1c-0.5,0.8-0.5,1.2-1.3,1.8c-0.8,0.6-1.6,0.5-2.3,0.4c-0.6,0-1.2-0.6-0.8-1.5c1.1-2.5,4.5-11.6,5-12.7
		c0.4-0.9,1-1.3,1.8-1.3c0.8,0,1.9-0.1,2.7,0c0.7,0.1,1.3,0.3,1.8,1.4c0.5,1.1,4,10.1,5.1,12.6C81.6,70.2,81,70.8,80.4,70.8z
		 M72.9,59.5c-0.9,0-1.6,1.8-1.9,4.1c-0.1,0.9,1.1,1.7,2.1,1.7c1,0,2.2-0.9,2-1.7C74.6,61.3,73.8,59.5,72.9,59.5z"/>
	<path class="st1" d="M96.1,71c-0.7,0.1-1.7,0.1-2.2-0.2c-0.6-0.3-0.8-1.1-1.3-2.2c-0.9-2.2-1.6-3.4-2.5-3.5
		c-1.6-0.1-2.2,0.1-2.2,2.4c0,0.5,0,1.6,0,2.2c0,0.8-0.6,1.2-1.2,1.2c-0.5,0-4.3,0-4.3,0l1.8-2.3V57.7l-1.8-2.3h3.1
		c0.7,0,4.7,0,5.2,0c3.2,0,6.3,1,6.3,4.1c0,1.9-1.1,2.6-1.7,3.2c-0.7,0.8-0.7,1.2-0.1,2.5c0.6,1.4,1.5,3.3,2,4.7
		C97.3,70.6,96.8,70.9,96.1,71z M89.7,57.7c-1.2,0.1-1.9,0.6-1.9,2.4c0,1.9,0.9,2.3,2.1,2.4c1.7,0.1,3.1-1.1,3.1-2.4
		C92.9,58.7,91.3,57.6,89.7,57.7z"/>
	<path class="st1" d="M112.8,71.1c-1.4,0-2.5-0.1-3.4-1.2c-0.9-1.1-2.6-3.4-2.8-3.8c-1.4-1.9-2.4-0.5-2.4,1.2c0,0.1,0,0.7,0,1.2
		l1.8,2.3h-7.4l1.8-2.3V57.7l-1.8-2.3h4.4c0.6,0,1.2,0.6,1.2,1.3c0,0,0,1.7,0,2c0,1.1,0.5,3,2.6,0.7c0.6-0.7,2.5-3.2,3.3-3.6
		c0.9-0.6,4.3-0.7,3.2,0.8c-1.1,1.5-2.6,3.3-3.4,4.5c-0.7,1-1,1.8-0.3,3c0.2,0.3,3.1,4.6,3.6,5.2C113.7,70.3,114.2,71.1,112.8,71.1z
		"/>
	<path class="st1" d="M137.2,70.9c0,0-7.8,0-8,0c-0.5,0-1.2-0.4-1.2-1.1v-12l-1.8-2.3c0,0,3.9,0,4.4,0c0.6,0,1.2,0.6,1.2,1.3v8.3
		c0,0.3,0,1.2,0,1.8c0,1.2,1.2,2.1,2.5,2.1c1,0,1.9,0,2.9,0c0.5,0,1.4,0.4,1.4,1C138.5,70.6,137.7,70.9,137.2,70.9z"/>
	<path class="st1" d="M155.5,70.8c-0.8,0.1-1.6,0.2-2.4-0.3c-0.8-0.6-0.8-1-1.3-1.8c-0.5-0.8-1.1-1-1.7-1.1c-0.6,0-3.3-0.1-3.9,0
		c-0.6,0.1-1.3,0.3-1.9,1.1c-0.5,0.8-0.5,1.2-1.3,1.8c-0.8,0.6-1.6,0.5-2.4,0.4c-0.6,0-1.2-0.6-0.8-1.5c1.1-2.5,4.5-11.6,5-12.7
		c0.4-0.9,1-1.3,1.8-1.3c0.8,0,1.9-0.1,2.7,0c0.7,0.1,1.3,0.3,1.8,1.4c0.5,1.1,4,10.1,5.1,12.6C156.6,70.2,156,70.8,155.5,70.8z
		 M147.9,59.5c-0.9,0-1.6,1.8-1.9,4.1c-0.1,0.9,1.1,1.7,2.1,1.7c1,0,2.2-0.9,2-1.7C149.6,61.3,148.8,59.5,147.9,59.5z"/>
	<path class="st1" d="M173.3,71.1c-0.5,0.1-2.5,0.1-3,0c-0.8-0.2-1.5-1.1-2.1-2.3c-1.1-1.9-2.2-4-3.2-5.5c-1.1-1.7-1.9-1.5-2.1-0.4
		c-0.2,0.7-0.1,1.6-0.1,2.6v2.9l1.8,2.3h-7.1l1.8-2.3V57.7l-1.8-2.3c0,0,6,0,6.1,0c1,0.2,1.5,1,2.2,2.2c0.9,1.8,2,3.6,3,5.4
		c0.9,1.5,2.3,2.2,2.3-0.6c0-0.6,0-0.7,0-1.7v-3.9c0-0.6,0.3-1.1,1.1-1.2c0.5,0,0.9-0.1,1.4,0c0.5,0.1,1,0.4,1,1.1v12.9
		C174.5,70.6,173.9,71.1,173.3,71.1z"/>
	<path class="st1" d="M186.1,70.9c-0.9,0-4.6,0-6.5,0c-1,0-1.6-0.9-1.6-1.8c0-0.7,0-8.5,0-11.4l-1.8-2.3h3.1c0,0,5.4,0,7.1,0
		c2,0,6.8,1.8,6.8,7.9C193.3,69.4,188.2,70.9,186.1,70.9z M189.2,61.2c-0.4-1.4-2-3.2-4-3.5c-2.1-0.3-3.3,0.2-3.3,1.5
		c0,1,0,6.8,0,8.1c0,1.3,1.4,1.7,3.3,1.4c2-0.3,3.8-1.9,4.1-3.4C189.7,63.9,189.6,62.5,189.2,61.2z"/>
	<path class="st1" d="M200.1,57.4c-1.5,0.4-1.8,2.1-1,2.9c0.9,1.1,2.7,1.3,4.7,2.1c3.1,1.3,3.4,5.9,0.4,7.7
		c-2.1,1.2-6.8,1.1-8.2,0.5c-1.8-0.8-0.9-1.5,0.1-1.5c1.9,0,3.5-0.1,4.5-0.4c1.9-0.7,1.9-2.9,0.6-3.6c-0.8-0.4-2.5-1-3.9-1.7
		c-3.4-1.6-2.9-6.6-0.4-7.7c2.4-1.1,5.8-0.8,7.3-0.2c1,0.4,1.3,1.3,0.3,1.4C203.5,57,201.9,56.9,200.1,57.4z"/>
</g>
<g>
	<path class="st1" d="M129.5,80.2c0.8,0,1.4,0.2,1.9,0.7c0.5,0.5,0.7,1.1,0.7,1.9c0,1-0.3,1.9-0.9,2.5c-0.6,0.7-1.4,1-2.3,1
		c-0.8,0-1.4-0.2-1.9-0.7s-0.7-1.1-0.7-1.9c0-1,0.3-1.9,0.9-2.6C127.7,80.6,128.5,80.2,129.5,80.2z M129.4,80.8
		c-0.6,0-1,0.3-1.4,0.9c-0.4,0.6-0.5,1.3-0.5,2.2c0,0.6,0.1,1.1,0.4,1.5c0.2,0.3,0.6,0.5,1.1,0.5c0.6,0,1.1-0.3,1.4-0.9
		s0.5-1.3,0.5-2.2c0-0.6-0.1-1.1-0.4-1.5C130.2,81,129.8,80.8,129.4,80.8z"/>
	<path class="st1" d="M134.3,81l-0.9-0.2l0-0.3l0.9-0.1l0-0.1c0.2-1.2,0.7-2.1,1.3-2.8c0.6-0.7,1.4-1,2.3-1c0.4,0,0.8,0.1,1.1,0.2
		c-0.1,0.5-0.3,1-0.4,1.6l-0.3,0.1l-0.4-1.2c-0.1,0-0.2,0-0.3,0c-0.5,0-0.9,0.2-1.3,0.7c-0.3,0.4-0.6,1.2-0.9,2.4l0,0.2h1.6L137,81
		h-1.6l-1,4.8c-0.2,1.3-0.6,2.2-1.1,2.8c-0.4,0.6-1.1,0.8-1.8,0.8c-0.3,0-0.6,0-1-0.1c0.1-0.4,0.2-0.8,0.3-1.1l0,0
		c0.6,0.4,1,0.6,1.2,0.6c0.5,0,0.9-0.6,1.1-1.9L134.3,81z"/>
	<path class="st1" d="M142.3,84.3c-0.1,0.5-0.2,0.9-0.2,1.2c0,0.1,0,0.2,0.1,0.2l0.9,0.3l0,0.3c-0.6,0-1.2,0-1.7,0c-0.5,0-1,0-1.6,0
		l0-0.3l0.8-0.2c0.1,0,0.2-0.1,0.2-0.2c0.1-0.3,0.2-0.8,0.3-1.3l1-5.2c0-0.2,0.1-0.4,0.1-0.6c0-0.2,0.1-0.3,0.1-0.5
		c0-0.1,0-0.2-0.1-0.2l-0.8-0.2l0-0.3c0.6,0,1.1,0,1.6,0h1.4c1,0,2,0,3.1,0l0,0.1l-0.7,2l-0.3,0l-0.1-1.5h-2.9l-0.7,3.7h0.5
		c0.4,0,0.9,0,1.5,0c0.1,0,0.2-0.1,0.2-0.2l0.4-0.9l0.3,0c-0.1,0.6-0.2,1-0.3,1.3c-0.1,0.3-0.1,0.7-0.2,1.3l-0.3,0l-0.1-0.9
		c0-0.1-0.1-0.2-0.2-0.2c-0.6,0-1.1,0-1.5,0h-0.5L142.3,84.3z"/>
	<path class="st1" d="M148,77.3V77c0.8-0.1,1.5-0.3,2.2-0.5l0.1,0.1c-0.1,0.3-0.2,0.7-0.3,1.2c-0.1,0.5-0.2,1.1-0.4,1.7l-1.2,5.7
		c0,0.1,0,0.2,0,0.2c0,0.2,0.1,0.3,0.2,0.3c0.1,0.1,0.4,0.1,0.7,0.1l0,0.2c-0.6,0.2-1,0.3-1.3,0.3c-0.2,0-0.4-0.1-0.6-0.2
		s-0.2-0.3-0.2-0.6c0-0.1,0-0.1,0-0.2s0-0.2,0-0.2l1.6-7.7L148,77.3z"/>
	<path class="st1" d="M153.9,80.2c0.8,0,1.4,0.2,1.9,0.7c0.5,0.5,0.7,1.1,0.7,1.9c0,1-0.3,1.9-0.9,2.5c-0.6,0.7-1.4,1-2.3,1
		c-0.8,0-1.4-0.2-1.9-0.7c-0.5-0.5-0.7-1.1-0.7-1.9c0-1,0.3-1.9,0.9-2.6C152.2,80.6,153,80.2,153.9,80.2z M153.9,80.8
		c-0.6,0-1,0.3-1.4,0.9c-0.4,0.6-0.5,1.3-0.5,2.2c0,0.6,0.1,1.1,0.4,1.5c0.2,0.3,0.6,0.5,1.1,0.5c0.6,0,1.1-0.3,1.4-0.9
		s0.5-1.3,0.5-2.2c0-0.6-0.1-1.1-0.4-1.5C154.7,81,154.3,80.8,153.9,80.8z"/>
	<path class="st1" d="M161.8,80.6c0.4-0.1,0.8-0.2,1.2-0.4l0.1,0.1c-0.2,0.6-0.4,1.2-0.6,1.8s-0.5,1.1-0.7,1.6
		c-0.2,0.5-0.5,1-0.8,1.4c-0.2,0.4-0.5,0.8-0.7,1.2c-0.3,0.5-0.6,0.9-0.8,1.4c-0.2,0.5-0.4,0.9-0.5,1.2c-0.1,0.1-0.1,0.3-0.2,0.3
		c-0.1,0.1-0.1,0.1-0.2,0.2s-0.2,0.1-0.3,0.1c-0.1,0-0.3,0-0.5,0c-0.5,0-0.9,0-1.2-0.1l0-0.2c0.2,0,0.5-0.1,0.7-0.2s0.4-0.2,0.5-0.3
		c0.1-0.1,0.2-0.2,0.3-0.3c0.1-0.1,0.2-0.3,0.4-0.4c0.1-0.2,0.3-0.4,0.5-0.7c0.2-0.3,0.4-0.6,0.7-1.1l-0.2-0.1
		c0-0.2-0.1-0.5-0.1-0.8s-0.1-0.6-0.2-1c-0.1-0.3-0.2-0.7-0.3-1c-0.1-0.3-0.2-0.7-0.3-0.9c-0.1-0.3-0.2-0.5-0.3-0.8
		s-0.2-0.4-0.2-0.5c-0.1-0.1-0.1-0.2-0.2-0.2s-0.1-0.1-0.2-0.1c-0.1,0-0.2,0-0.3-0.1s-0.2,0-0.4,0l0-0.2c0.6-0.2,1-0.3,1.4-0.3
		c0.2,0,0.3,0,0.4,0.1s0.2,0.2,0.2,0.3c0.1,0.1,0.1,0.3,0.2,0.5s0.2,0.4,0.2,0.7s0.2,0.5,0.2,0.8s0.2,0.6,0.2,0.9
		c0.1,0.3,0.1,0.6,0.2,0.9s0.1,0.6,0.1,0.9c0.4-0.8,0.8-1.5,1-2.3C161.5,82.2,161.7,81.4,161.8,80.6z"/>
	<path class="st1" d="M167.7,77.3V77c0.8-0.1,1.5-0.3,2.2-0.5l0.1,0.1c-0.1,0.3-0.2,0.7-0.3,1.2c-0.1,0.5-0.2,1.1-0.4,1.7l-1.1,5.6
		c0,0.1,0,0.2,0,0.2c0,0.2,0.1,0.3,0.2,0.4c0.1,0.1,0.4,0.1,0.7,0.1l0,0.2c-0.6,0.2-1,0.3-1.2,0.3c-0.2,0-0.4-0.1-0.6-0.2
		s-0.2-0.4-0.2-0.6c0,0,0-0.1,0-0.2c-0.4,0.4-0.8,0.7-1.1,0.8c-0.3,0.2-0.5,0.3-0.7,0.3c-0.6,0-1-0.2-1.3-0.6s-0.5-0.9-0.5-1.6
		c0-1.1,0.4-2.1,1-2.8c0.7-0.8,1.6-1.1,2.6-1.1c0.3,0,0.6,0,0.9,0.1l0.6-2.9L167.7,77.3z M167.9,81c-0.3-0.2-0.6-0.2-0.9-0.2
		c-0.6,0-1.2,0.3-1.6,1c-0.4,0.7-0.7,1.4-0.7,2.2c0,0.5,0.1,0.8,0.3,1.2c0.2,0.3,0.4,0.5,0.7,0.5c0.1,0,0.3-0.1,0.5-0.2
		c0.2-0.1,0.6-0.3,0.9-0.6L167.9,81z"/>
	<path class="st1" d="M174,80.9c-0.2-0.1-0.5-0.1-0.8-0.1c-0.4,0-0.8,0.1-1.1,0.3s-0.4,0.4-0.4,0.7c0,0.2,0,0.3,0.1,0.4
		c0.1,0.1,0.2,0.2,0.3,0.3c0.1,0.1,0.3,0.2,0.4,0.2s0.3,0.1,0.5,0.2c0.2,0.1,0.4,0.2,0.6,0.2c0.2,0.1,0.4,0.2,0.5,0.3
		c0.1,0.1,0.3,0.3,0.4,0.4c0.1,0.2,0.1,0.3,0.1,0.6c0,0.6-0.2,1.1-0.8,1.4c-0.5,0.3-1.2,0.5-2,0.5c-0.7,0-1.3-0.1-2-0.4
		c0.1-0.5,0.3-1.1,0.4-1.7l0.2,0l0.4,1.4c0.3,0.1,0.6,0.1,1,0.1c0.4,0,0.8-0.1,1-0.3c0.3-0.2,0.4-0.4,0.4-0.8c0-0.1,0-0.3-0.1-0.4
		c-0.1-0.1-0.2-0.2-0.3-0.3c-0.1-0.1-0.2-0.2-0.4-0.2s-0.3-0.1-0.5-0.2c-0.2-0.1-0.4-0.2-0.5-0.2c-0.2-0.1-0.3-0.2-0.5-0.3
		s-0.2-0.3-0.3-0.4c-0.1-0.2-0.1-0.4-0.1-0.6c0-0.6,0.2-1,0.8-1.4s1.1-0.5,1.9-0.5c0.6,0,1.1,0.1,1.7,0.3c-0.1,0.4-0.2,1-0.4,1.6
		l-0.2,0L174,80.9z"/>
	<path class="st1" d="M181.1,84.3c-0.1,0.5-0.2,0.9-0.2,1.2c0,0.1,0,0.2,0.1,0.2l0.9,0.3l0,0.3c-0.6,0-1.2,0-1.7,0c-0.5,0-1,0-1.6,0
		l0-0.3l0.8-0.2c0.1,0,0.2-0.1,0.2-0.2c0.1-0.3,0.2-0.8,0.3-1.3l1-5.2c0-0.2,0.1-0.4,0.1-0.6c0-0.2,0.1-0.3,0.1-0.5
		c0-0.1,0-0.2-0.1-0.2l-0.8-0.2l0-0.3c0.6,0,1.1,0,1.6,0h1.4c1,0,2,0,3.1,0l0,0.1l-0.7,2l-0.3,0l-0.1-1.5h-2.9l-0.7,3.7h0.5
		c0.4,0,0.9,0,1.5,0c0.1,0,0.2-0.1,0.2-0.2l0.4-0.9l0.3,0c-0.1,0.6-0.2,1-0.3,1.3c-0.1,0.3-0.1,0.7-0.2,1.3l-0.3,0l-0.1-0.9
		c0-0.1-0.1-0.2-0.2-0.2c-0.6,0-1.1,0-1.5,0h-0.5L181.1,84.3z"/>
	<path class="st1" d="M188.7,80.2c0.8,0,1.4,0.2,1.9,0.7c0.5,0.5,0.7,1.1,0.7,1.9c0,1-0.3,1.9-0.9,2.5c-0.6,0.7-1.4,1-2.3,1
		c-0.8,0-1.4-0.2-1.9-0.7c-0.5-0.5-0.7-1.1-0.7-1.9c0-1,0.3-1.9,0.9-2.6C187,80.6,187.7,80.2,188.7,80.2z M188.6,80.8
		c-0.6,0-1,0.3-1.4,0.9c-0.4,0.6-0.5,1.3-0.5,2.2c0,0.6,0.1,1.1,0.4,1.5c0.2,0.3,0.6,0.5,1.1,0.5c0.6,0,1.1-0.3,1.4-0.9
		s0.5-1.3,0.5-2.2c0-0.6-0.1-1.1-0.4-1.5C189.4,81,189.1,80.8,188.6,80.8z"/>
	<path class="st1" d="M192.5,86.3l1-4.9c0-0.2,0.1-0.3,0.1-0.3c0-0.1-0.1-0.2-0.1-0.2c-0.1-0.1-0.4-0.1-0.8-0.1l0-0.2
		c0.6-0.2,1-0.3,1.4-0.3c0.2,0,0.4,0.1,0.5,0.2c0.1,0.1,0.2,0.2,0.2,0.4c0,0,0,0.1,0,0.2c0.9-0.5,1.6-0.8,2.3-0.8l0,0
		c-0.1,0.6-0.3,1.3-0.4,2l-0.3,0c-0.1-0.4-0.2-0.7-0.3-0.9c-0.1-0.2-0.3-0.2-0.5-0.2s-0.6,0.1-0.9,0.3l-1,4.7L192.5,86.3z"/>
	<path class="st1" d="M197.3,86.3l1.8-8.9l-1-0.2V77c0.4-0.1,0.7-0.1,1.1-0.2s0.7-0.2,1.1-0.2l0.1,0.1c-0.1,0.3-0.2,0.7-0.3,1.2
		c-0.1,0.5-0.2,1.1-0.3,1.7l-1.4,6.7L197.3,86.3z M203,86.3c-0.6,0-1,0-1.2,0c-0.1,0-0.2,0-0.3,0s-0.2,0-0.4,0
		c-0.2-0.4-0.4-0.9-0.7-1.5s-0.7-1.1-1.1-1.8c1.4-1.2,2.2-2.1,2.5-2.6c0.2,0,0.3,0,0.4,0c0.3,0,0.8,0,1.5,0l0,0.3
		c-0.2,0.1-0.4,0.1-0.6,0.2c-0.1,0-0.3,0.1-0.4,0.1c-0.1,0.1-0.2,0.1-0.4,0.2c-0.1,0.1-0.2,0.2-0.4,0.3l-1.5,1.3l1.5,2.5
		c0.2,0.3,0.3,0.5,0.4,0.6c0.1,0.1,0.3,0.2,0.6,0.2L203,86.3z"/>
</g>
</svg>
